<svg id="圖層_1" data-name="圖層 1" xmlns="http://www.w3.org/2000/svg" viewBox="0 0 135 40"><path d="M360.7,440.5H235.23a4.74,4.74,0,0,1-4.73-4.73V405.23a4.73,4.73,0,0,1,4.73-4.73H360.7a4.8,4.8,0,0,1,4.8,4.73v30.54a4.81,4.81,0,0,1-4.8,4.73Z" transform="translate(-230.5 -400.5)" style="fill:#fff"/><path d="M364.53,435.77a3.83,3.83,0,0,1-3.83,3.83H235.23a3.84,3.84,0,0,1-3.84-3.83V405.22a3.84,3.84,0,0,1,3.84-3.83H360.7a3.83,3.83,0,0,1,3.83,3.83v30.55Z" transform="translate(-230.5 -400.5)" style="fill:#040000"/><path d="M260.63,420.28a5.79,5.79,0,0,1,2.76-4.86,6,6,0,0,0-4.68-2.53c-2-.21-3.87,1.18-4.87,1.18s-2.57-1.16-4.23-1.12a6.22,6.22,0,0,0-5.24,3.19c-2.27,3.92-.58,9.69,1.59,12.86,1.09,1.55,2.36,3.29,4,3.23s2.23-1,4.19-1,2.52,1,4.21,1,2.84-1.56,3.89-3.13a13,13,0,0,0,1.78-3.62A5.61,5.61,0,0,1,260.63,420.28Z" transform="translate(-230.5 -400.5)" style="fill:#fff"/><path d="M257.43,410.81a5.71,5.71,0,0,0,1.3-4.09,5.77,5.77,0,0,0-3.75,1.94,5.4,5.4,0,0,0-1.34,3.94A4.8,4.8,0,0,0,257.43,410.81Z" transform="translate(-230.5 -400.5)" style="fill:#fff"/><path d="M284.15,432h-2.28l-1.24-3.9h-4.32l-1.19,3.9h-2.21l4.28-13.3h2.65Zm-3.89-5.54L279.13,423c-.12-.35-.34-1.19-.67-2.51h0c-.13.57-.34,1.41-.63,2.51l-1.11,3.48Z" transform="translate(-230.5 -400.5)" style="fill:#fff"/><path d="M295.16,427.09a5.47,5.47,0,0,1-1.32,3.87,3.87,3.87,0,0,1-2.94,1.26,3,3,0,0,1-2.73-1.36h0v5.05H286V425.57c0-1,0-2.08-.08-3.16h1.88l.12,1.52h0a3.53,3.53,0,0,1,3.23-1.72,3.58,3.58,0,0,1,2.84,1.34A5.35,5.35,0,0,1,295.16,427.09Zm-2.17.08a3.94,3.94,0,0,0-.63-2.31,2.17,2.17,0,0,0-1.86-.95,2.21,2.21,0,0,0-1.43.52,2.42,2.42,0,0,0-.84,1.37,3.23,3.23,0,0,0-.1.65v1.6a2.6,2.6,0,0,0,.64,1.77,2.14,2.14,0,0,0,1.67.72,2.2,2.2,0,0,0,1.88-.92A4.08,4.08,0,0,0,293,427.17Z" transform="translate(-230.5 -400.5)" style="fill:#fff"/><path d="M306.2,427.09a5.47,5.47,0,0,1-1.32,3.87,3.89,3.89,0,0,1-2.95,1.26,2.93,2.93,0,0,1-2.72-1.36h0v5.05H297V425.57c0-1,0-2.08-.08-3.16h1.87l.12,1.52h0a3.55,3.55,0,0,1,3.24-1.72,3.59,3.59,0,0,1,2.84,1.34A5.35,5.35,0,0,1,306.2,427.09Zm-2.17.08a3.87,3.87,0,0,0-.64-2.31,2.15,2.15,0,0,0-1.85-.95,2.19,2.19,0,0,0-1.43.52,2.42,2.42,0,0,0-.84,1.37,2.64,2.64,0,0,0-.1.65v1.6a2.55,2.55,0,0,0,.64,1.77,2.13,2.13,0,0,0,1.67.72,2.18,2.18,0,0,0,1.87-.92A4.09,4.09,0,0,0,304,427.17Z" transform="translate(-230.5 -400.5)" style="fill:#fff"/><path d="M318.54,428.27a3.56,3.56,0,0,1-1.18,2.77,5.29,5.29,0,0,1-3.63,1.16,6.29,6.29,0,0,1-3.45-.83l.5-1.77a5.87,5.87,0,0,0,3.08.84,2.94,2.94,0,0,0,1.88-.54,1.79,1.79,0,0,0,.67-1.45,1.87,1.87,0,0,0-.56-1.37,5.13,5.13,0,0,0-1.83-1q-3.5-1.31-3.5-3.81a3.37,3.37,0,0,1,1.23-2.69A4.82,4.82,0,0,1,315,418.5a6.49,6.49,0,0,1,3,.63l-.54,1.74a5.21,5.21,0,0,0-2.54-.61,2.58,2.58,0,0,0-1.76.55,1.6,1.6,0,0,0-.53,1.21,1.62,1.62,0,0,0,.61,1.3,6.78,6.78,0,0,0,1.93,1,6.5,6.5,0,0,1,2.53,1.62A3.35,3.35,0,0,1,318.54,428.27Z" transform="translate(-230.5 -400.5)" style="fill:#fff"/><path d="M325.59,424h-2.35v4.66c0,1.18.41,1.77,1.24,1.77a4.19,4.19,0,0,0,.95-.09l.06,1.61a4.78,4.78,0,0,1-1.66.24,2.59,2.59,0,0,1-2-.77,3.8,3.8,0,0,1-.71-2.59V424h-1.4v-1.6h1.4v-1.76l2.1-.63v2.39h2.35Z" transform="translate(-230.5 -400.5)" style="fill:#fff"/><path d="M336.19,427.13a5.28,5.28,0,0,1-1.26,3.63,4.52,4.52,0,0,1-3.52,1.46,4.28,4.28,0,0,1-3.36-1.4,5.07,5.07,0,0,1-1.26-3.53,5.24,5.24,0,0,1,1.29-3.66,4.53,4.53,0,0,1,3.49-1.42,4.37,4.37,0,0,1,3.39,1.4A5.05,5.05,0,0,1,336.19,427.13Zm-2.21.07a4.33,4.33,0,0,0-.57-2.28,2.11,2.11,0,0,0-1.92-1.15,2.13,2.13,0,0,0-1.95,1.15,4.32,4.32,0,0,0-.57,2.32,4.23,4.23,0,0,0,.57,2.27,2.18,2.18,0,0,0,3.85,0A4.33,4.33,0,0,0,334,427.2Z" transform="translate(-230.5 -400.5)" style="fill:#fff"/><path d="M343.12,424.28a3.63,3.63,0,0,0-.67-.06,2,2,0,0,0-1.74.85,3.25,3.25,0,0,0-.53,1.9v5h-2.13l0-6.57c0-1.11,0-2.11-.08-3h1.85l.08,1.83H340a3.35,3.35,0,0,1,1.07-1.52,2.59,2.59,0,0,1,1.54-.51,2.86,2.86,0,0,1,.53,0Z" transform="translate(-230.5 -400.5)" style="fill:#fff"/><path d="M352.66,426.75a5.26,5.26,0,0,1-.08,1h-6.4a2.81,2.81,0,0,0,.93,2.17,3.16,3.16,0,0,0,2.09.67,7.15,7.15,0,0,0,2.59-.45l.33,1.48a7.9,7.9,0,0,1-3.21.59,4.68,4.68,0,0,1-3.51-1.31,4.85,4.85,0,0,1-1.27-3.53,5.5,5.5,0,0,1,1.18-3.61,4.11,4.11,0,0,1,3.36-1.54,3.59,3.59,0,0,1,3.14,1.54A5.24,5.24,0,0,1,352.66,426.75Zm-2-.55a2.85,2.85,0,0,0-.41-1.64,1.88,1.88,0,0,0-1.7-.89,2,2,0,0,0-1.7.87,3.25,3.25,0,0,0-.63,1.66Z" transform="translate(-230.5 -400.5)" style="fill:#fff"/><path d="M279.55,410.51a3.28,3.28,0,0,1-1.06,2.66,4.19,4.19,0,0,1-2.78.82,13.1,13.1,0,0,1-1.53-.08v-6.43a11.2,11.2,0,0,1,1.8-.13,3.87,3.87,0,0,1,2.59.74A3,3,0,0,1,279.55,410.51Zm-1.1,0a2.14,2.14,0,0,0-2.38-2.37,4.22,4.22,0,0,0-.85.07v4.89a5.56,5.56,0,0,0,.71,0,2.52,2.52,0,0,0,1.86-.67A2.68,2.68,0,0,0,278.45,410.54Z" transform="translate(-230.5 -400.5)" style="fill:#fff"/><path d="M285.41,411.54a2.59,2.59,0,0,1-.62,1.78,2.23,2.23,0,0,1-1.73.72,2.1,2.1,0,0,1-1.65-.69,2.51,2.51,0,0,1-.62-1.73,2.56,2.56,0,0,1,.64-1.8,2.21,2.21,0,0,1,1.71-.7,2.16,2.16,0,0,1,1.67.69A2.5,2.5,0,0,1,285.41,411.54Zm-1.09,0a2.12,2.12,0,0,0-.28-1.12,1,1,0,0,0-.94-.56,1.06,1.06,0,0,0-1,.56,2.14,2.14,0,0,0-.28,1.14,2.12,2.12,0,0,0,.28,1.12,1.06,1.06,0,0,0,.95.56,1,1,0,0,0,.94-.57A2.07,2.07,0,0,0,284.32,411.57Z" transform="translate(-230.5 -400.5)" style="fill:#fff"/><path d="M293.26,409.22l-1.47,4.71h-1l-.61-2a14.24,14.24,0,0,1-.38-1.53h0a11.4,11.4,0,0,1-.38,1.53l-.65,2h-1l-1.38-4.71h1.07l.54,2.24c.12.53.23,1,.32,1.51h0q.12-.59.39-1.5l.67-2.25h.86l.64,2.2c.15.54.28,1.06.38,1.55h0c.08-.48.18-1,.32-1.55l.58-2.2Z" transform="translate(-230.5 -400.5)" style="fill:#fff"/><path d="M298.7,413.93h-1.05v-2.7c0-.83-.32-1.24-.95-1.24a1,1,0,0,0-.76.34,1.24,1.24,0,0,0-.29.81v2.79h-1v-3.36q0-.63,0-1.35h.92l.05.73h0a1.52,1.52,0,0,1,.54-.56,1.73,1.73,0,0,1,.95-.27,1.47,1.47,0,0,1,1.09.43,2,2,0,0,1,.55,1.56Z" transform="translate(-230.5 -400.5)" style="fill:#fff"/><path d="M301.59,413.93h-1v-6.87h1Z" transform="translate(-230.5 -400.5)" style="fill:#fff"/><path d="M307.76,411.54a2.59,2.59,0,0,1-.62,1.78,2.23,2.23,0,0,1-1.73.72,2.1,2.1,0,0,1-1.65-.69,2.51,2.51,0,0,1-.62-1.73,2.56,2.56,0,0,1,.64-1.8,2.21,2.21,0,0,1,1.71-.7,2.17,2.17,0,0,1,1.67.69A2.5,2.5,0,0,1,307.76,411.54Zm-1.09,0a2.12,2.12,0,0,0-.28-1.12,1,1,0,0,0-.94-.56,1.06,1.06,0,0,0-1,.56,2.14,2.14,0,0,0-.28,1.14,2.12,2.12,0,0,0,.28,1.12,1.06,1.06,0,0,0,.95.56,1.05,1.05,0,0,0,.94-.57A2.16,2.16,0,0,0,306.67,411.57Z" transform="translate(-230.5 -400.5)" style="fill:#fff"/><path d="M312.83,413.93h-.94l-.08-.54h0a1.62,1.62,0,0,1-1.38.65,1.39,1.39,0,0,1-1.07-.43,1.33,1.33,0,0,1-.37-1,1.48,1.48,0,0,1,.72-1.32,3.77,3.77,0,0,1,2-.44v-.09c0-.62-.33-.93-1-.93a2.19,2.19,0,0,0-1.23.35l-.22-.69a3,3,0,0,1,1.62-.41c1.23,0,1.85.65,1.85,1.95v1.74A8,8,0,0,0,312.83,413.93Zm-1.09-1.62v-.72c-1.15,0-1.73.29-1.73,1a.69.69,0,0,0,.2.55.74.74,0,0,0,.51.18,1.07,1.07,0,0,0,.64-.21,1,1,0,0,0,.37-.56A1.09,1.09,0,0,0,311.74,412.31Z" transform="translate(-230.5 -400.5)" style="fill:#fff"/><path d="M318.79,413.93h-.93l-.05-.75h0a1.59,1.59,0,0,1-1.52.86,1.76,1.76,0,0,1-1.41-.67,2.58,2.58,0,0,1-.56-1.74,2.72,2.72,0,0,1,.61-1.85,1.86,1.86,0,0,1,1.45-.66,1.41,1.41,0,0,1,1.33.64h0v-2.7h1.05v5.6C318.75,413.12,318.76,413.54,318.79,413.93Zm-1.09-2v-.78a1.42,1.42,0,0,0,0-.33,1.24,1.24,0,0,0-.38-.64,1,1,0,0,0-.7-.25,1.06,1.06,0,0,0-.92.46,2,2,0,0,0-.34,1.2,1.89,1.89,0,0,0,.32,1.13,1.1,1.1,0,0,0,.92.47,1,1,0,0,0,.83-.39A1.31,1.31,0,0,0,317.7,411.94Z" transform="translate(-230.5 -400.5)" style="fill:#fff"/><path d="M327.75,411.54a2.59,2.59,0,0,1-.62,1.78,2.23,2.23,0,0,1-1.73.72,2.1,2.1,0,0,1-1.65-.69,2.51,2.51,0,0,1-.62-1.73,2.56,2.56,0,0,1,.64-1.8,2.21,2.21,0,0,1,1.71-.7,2.16,2.16,0,0,1,1.67.69A2.5,2.5,0,0,1,327.75,411.54Zm-1.09,0a2.12,2.12,0,0,0-.28-1.12,1,1,0,0,0-.94-.56,1.06,1.06,0,0,0-1,.56,2.14,2.14,0,0,0-.28,1.14,2.12,2.12,0,0,0,.28,1.12,1.06,1.06,0,0,0,.95.56,1,1,0,0,0,.94-.57A2.16,2.16,0,0,0,326.66,411.57Z" transform="translate(-230.5 -400.5)" style="fill:#fff"/><path d="M333.38,413.93h-1v-2.7c0-.83-.32-1.24-1-1.24a.92.92,0,0,0-.75.34,1.19,1.19,0,0,0-.29.81v2.79h-1v-3.36c0-.42,0-.87,0-1.35h.92l.05.73h0a1.52,1.52,0,0,1,.54-.56,1.78,1.78,0,0,1,.95-.27,1.49,1.49,0,0,1,1.1.43,2.08,2.08,0,0,1,.54,1.56Z" transform="translate(-230.5 -400.5)" style="fill:#fff"/><path d="M340.44,410h-1.16v2.29c0,.59.21.88.61.88a2,2,0,0,0,.47-.05l0,.79a2.33,2.33,0,0,1-.82.12,1.28,1.28,0,0,1-1-.38,1.85,1.85,0,0,1-.35-1.27V410h-.69v-.78h.69v-.87l1-.31v1.18h1.15V410Z" transform="translate(-230.5 -400.5)" style="fill:#fff"/><path d="M346,413.93h-1.05v-2.68c0-.84-.31-1.26-.94-1.26a1,1,0,0,0-1,.73,1.06,1.06,0,0,0-.05.38v2.83h-1.05v-6.87h1.05v2.84h0a1.58,1.58,0,0,1,1.41-.78,1.43,1.43,0,0,1,1.08.43,2.11,2.11,0,0,1,.53,1.58Z" transform="translate(-230.5 -400.5)" style="fill:#fff"/><path d="M351.71,411.35a3.08,3.08,0,0,1,0,.48h-3.15a1.39,1.39,0,0,0,.46,1.06,1.57,1.57,0,0,0,1,.33,3.46,3.46,0,0,0,1.27-.22l.16.73a4,4,0,0,1-1.58.29,2.29,2.29,0,0,1-1.72-.64,2.38,2.38,0,0,1-.62-1.74,2.68,2.68,0,0,1,.58-1.77,2,2,0,0,1,1.65-.76,1.78,1.78,0,0,1,1.54.76A2.51,2.51,0,0,1,351.71,411.35Zm-1-.27a1.39,1.39,0,0,0-.21-.8.92.92,0,0,0-.83-.44,1,1,0,0,0-.83.43,1.58,1.58,0,0,0-.32.81Z" transform="translate(-230.5 -400.5)" style="fill:#fff"/></svg>
