<svg id="圖層_1" data-name="圖層 1" xmlns="http://www.w3.org/2000/svg" xmlns:xlink="http://www.w3.org/1999/xlink" viewBox="0 0 135 40"><defs><clipPath id="clip-path" transform="translate(-230.5 -400.5)"><path d="M246.23,411.18l9.31,9.31,2.92-2.92-11.37-6.25a1.29,1.29,0,0,0-.61-.17,1,1,0,0,0-.25,0" style="fill:none"/></clipPath><linearGradient id="未命名漸層_5" x1="-180.96" y1="359.22" x2="-180.43" y2="359.22" gradientTransform="matrix(-6.11, -26.53, -26.53, 6.11, 8447.74, -6974.43)" gradientUnits="userSpaceOnUse"><stop offset="0" stop-color="#d0e39d"/><stop offset="0.3" stop-color="#9bcf9f"/><stop offset="0.98" stop-color="#179dac"/><stop offset="1" stop-color="#169bac"/></linearGradient><clipPath id="clip-path-2" transform="translate(-230.5 -400.5)"><path d="M255.54,420.49l2.93,2.93,3.88-2.13c.79-.44.79-1.14,0-1.58l-3.89-2.14Z" style="fill:none"/></clipPath><linearGradient id="未命名漸層_2" x1="-134.32" y1="368.95" x2="-133.78" y2="368.95" gradientTransform="matrix(15.62, 26.69, 26.69, -15.62, -7724.2, 9358.62)" gradientUnits="userSpaceOnUse"><stop offset="0" stop-color="#e62874"/><stop offset="0.01" stop-color="#e62a75"/><stop offset="0.7" stop-color="#f5ab75"/><stop offset="1" stop-color="#f6e574"/></linearGradient><clipPath id="clip-path-3" transform="translate(-230.5 -400.5)"><path d="M245.66,412.17v16.66a.93.93,0,0,0,.56,1l9.32-9.32-9.31-9.31a1,1,0,0,0-.57,1" style="fill:none"/></clipPath><linearGradient id="未命名漸層_3" x1="-174.39" y1="361.99" x2="-173.86" y2="361.99" gradientTransform="matrix(-9.44, -36.44, -36.44, 9.44, 11564.92, -9748.92)" gradientUnits="userSpaceOnUse"><stop offset="0" stop-color="#86cbb8"/><stop offset="0.48" stop-color="#3599b1"/><stop offset="0.83" stop-color="#155d9f"/><stop offset="1" stop-color="#054797"/></linearGradient><clipPath id="clip-path-4" transform="translate(-230.5 -400.5)"><path d="M246.21,429.81a1.07,1.07,0,0,0,.88-.13l11.38-6.26-2.93-2.93Z" style="fill:none"/></clipPath><linearGradient id="未命名漸層_4" x1="-165.81" y1="386.88" x2="-165.28" y2="386.88" gradientTransform="matrix(-32.74, 4.48, 4.48, 32.74, -7132.4, -11897.53)" gradientUnits="userSpaceOnUse"><stop offset="0" stop-color="#e9482b"/><stop offset="0.35" stop-color="#c73f62"/><stop offset="0.8" stop-color="#854295"/><stop offset="1" stop-color="#694598"/></linearGradient></defs><path d="M360.7,440.5H235.23a4.74,4.74,0,0,1-4.73-4.73V405.23a4.73,4.73,0,0,1,4.73-4.73H360.7a4.8,4.8,0,0,1,4.8,4.73v30.54a4.81,4.81,0,0,1-4.8,4.73Z" transform="translate(-230.5 -400.5)" style="fill:#fff"/><path d="M364.53,435.77a3.83,3.83,0,0,1-3.83,3.83H235.23a3.84,3.84,0,0,1-3.84-3.83V405.23a3.84,3.84,0,0,1,3.84-3.84H360.7a3.83,3.83,0,0,1,3.83,3.84v30.54Z" transform="translate(-230.5 -400.5)" style="fill:#040000"/><path d="M321.15,428.64l-.86.81c-.19.11-.39.23-.59.33a4.15,4.15,0,0,1-1.74.33,3.78,3.78,0,0,1-2.39-.7,4.63,4.63,0,0,1-1.84-3.79,4.08,4.08,0,0,1,4.12-4.15,3.5,3.5,0,0,1,1.85.5,3,3,0,0,1,1.26,1.78l-4.22,1.71-1.39.11c.45,2.28,2,3.61,3.7,3.61a4.51,4.51,0,0,0,2.07-.56s.12-.07,0,0m-2.54-4.55c.34-.12.52-.23.52-.48a1.78,1.78,0,0,0-1.78-1.54,2.21,2.21,0,0,0-2.07,2.5c0,.3,0,.62.05.94Z" transform="translate(-230.5 -400.5)" style="fill:#fff"/><path d="M312.32,428.5c0,.7.13.81.72.86.3,0,.61.05.91.09l-.66.39h-3.17c.42-.53.49-.59.49-.95V417.81h-1.4l1.35-.65h2.57a1.25,1.25,0,0,0-.8,1.15Z" transform="translate(-230.5 -400.5)" style="fill:#fff"/><path d="M307.41,422.35a2.94,2.94,0,0,1-.23,5,1.25,1.25,0,0,0-.51.88,1,1,0,0,0,.47.77l.65.51A3.11,3.11,0,0,1,309.3,432c0,1.69-1.64,3.4-4.73,3.4-2.6,0-3.86-1.24-3.86-2.57a2.57,2.57,0,0,1,1.38-2.19,7.73,7.73,0,0,1,3.43-.83,1.9,1.9,0,0,1-.54-1.22,1.57,1.57,0,0,1,.18-.7,5.59,5.59,0,0,1-.57,0,2.84,2.84,0,0,1-3-2.82,3.22,3.22,0,0,1,1.16-2.41,4.9,4.9,0,0,1,3.21-1h3.71l-1.16.65Zm-1.27,8a2.75,2.75,0,0,0-.42,0,7.25,7.25,0,0,0-1.88.29,2,2,0,0,0-1.55,1.85c0,1.28,1.24,2.2,3.16,2.2,1.73,0,2.64-.83,2.64-1.95,0-.91-.59-1.4-1.95-2.37m.51-3.41a1.81,1.81,0,0,0,.45-1.32c0-1.29-.77-3.3-2.26-3.3a1.7,1.7,0,0,0-1.26.59,2.1,2.1,0,0,0-.39,1.33c0,1.2.7,3.2,2.24,3.2a1.85,1.85,0,0,0,1.22-.5" transform="translate(-230.5 -400.5)" style="fill:#fff"/><path d="M296.27,430.08a4.24,4.24,0,0,1-4.39-4.24,4.46,4.46,0,0,1,4.66-4.37,4.2,4.2,0,0,1,4.29,4.24,4.39,4.39,0,0,1-4.56,4.37m2.24-1.46a3.18,3.18,0,0,0,.54-2c0-1.58-.75-4.6-3-4.6a2.5,2.5,0,0,0-1.62.61,2.72,2.72,0,0,0-.82,2.19c0,1.78.87,4.71,3.05,4.71a2.28,2.28,0,0,0,1.83-.92" transform="translate(-230.5 -400.5)" style="fill:#fff"/><path d="M286.7,430.08a4.24,4.24,0,0,1-4.38-4.24,4.46,4.46,0,0,1,4.65-4.37,4.21,4.21,0,0,1,4.3,4.24,4.4,4.4,0,0,1-4.57,4.37m2.25-1.46a3.24,3.24,0,0,0,.54-2c0-1.58-.76-4.6-3-4.6a2.48,2.48,0,0,0-1.62.61,2.73,2.73,0,0,0-.83,2.19c0,1.78.88,4.71,3.06,4.71a2.28,2.28,0,0,0,1.83-.92" transform="translate(-230.5 -400.5)" style="fill:#fff"/><path d="M281.18,429.45l-2.41.55a16.94,16.94,0,0,1-2.78.29,6,6,0,0,1-6.42-6.09c0-3.27,2.51-6.3,6.81-6.3a9.8,9.8,0,0,1,2.58.35,6.57,6.57,0,0,1,2.22,1l-1.4,1.33-.59.14.42-.68A4.84,4.84,0,0,0,276,418.5a4.65,4.65,0,0,0-4.66,5,6,6,0,0,0,6,6.15,5,5,0,0,0,2.14-.42v-2.72l-2.54.14,1.34-.72h3.57l-.43.42a.37.37,0,0,0-.17.26c0,.16,0,.65,0,.82v2.05Z" transform="translate(-230.5 -400.5)" style="fill:#fff"/><path d="M326.34,428.71v4.58h-.91V421.64h.91V423a3.6,3.6,0,0,1,2.93-1.54c2.25,0,3.77,1.71,3.77,4.42s-1.52,4.44-3.77,4.44a3.6,3.6,0,0,1-2.93-1.58m5.72-2.86c0-2-1.06-3.6-2.95-3.6a3.6,3.6,0,0,0-2.77,1.73v3.73a3.62,3.62,0,0,0,2.77,1.75c1.89,0,2.95-1.56,2.95-3.61" transform="translate(-230.5 -400.5)" style="fill:#fff"/><rect x="103.78" y="17.93" width="0.91" height="11.65" style="fill:#fff"/><path d="M345.39,432.54a2.07,2.07,0,0,0,.74.14c.55,0,.94-.23,1.29-1l.66-1.5-3.58-8.51h1l3.08,7.37,3-7.37h1l-4.37,10.29a2.24,2.24,0,0,1-2.15,1.57,3.64,3.64,0,0,1-.91-.12Z" transform="translate(-230.5 -400.5)" style="fill:#fff"/><path d="M342.74,430.05c-.07-.29-.11-.55-.14-.76a4.89,4.89,0,0,1-.05-.66,3.53,3.53,0,0,1-1.32,1.14,3.62,3.62,0,0,1-1.83.45,3,3,0,0,1-2.07-.66,2.29,2.29,0,0,1-.73-1.8,2.11,2.11,0,0,1,1.07-1.84,4.89,4.89,0,0,1,2.76-.7h2.12v-1.05a1.75,1.75,0,0,0-.61-1.42,2.65,2.65,0,0,0-1.75-.52,2.74,2.74,0,0,0-1.66.47,1.42,1.42,0,0,0-.63,1.18H337l0-.05a1.93,1.93,0,0,1,.88-1.67,4.35,4.35,0,0,1,4.81,0,2.42,2.42,0,0,1,.91,2v4.16a6.17,6.17,0,0,0,.05.87,5.84,5.84,0,0,0,.18.83Zm-3.23-.66a3.4,3.4,0,0,0,1.89-.51,2.6,2.6,0,0,0,1.15-1.32v-1.62h-2.13a3.53,3.53,0,0,0-2,.54,1.57,1.57,0,0,0-.8,1.31,1.45,1.45,0,0,0,.51,1.16,2.1,2.1,0,0,0,1.4.44" transform="translate(-230.5 -400.5)" style="fill:#fff"/><path d="M274.63,412.87l-.42-1.1H271.6l-.42,1.1h-1.13l2.23-5.68h1.25l2.23,5.68Zm-1.72-4.69-1,2.71h2.05Z" transform="translate(-230.5 -400.5)" style="fill:#fff"/><polygon points="50.05 12.37 47.08 8.3 47.08 12.37 46.09 12.37 46.09 6.68 47.11 6.68 50.02 10.62 50.02 6.68 51.01 6.68 51.01 12.37 50.05 12.37" style="fill:#fff"/><path d="M282.93,412.87v-5.68h2.12a2.84,2.84,0,1,1,0,5.68ZM287,410a1.84,1.84,0,0,0-1.94-2h-1.13V412h1.12a1.87,1.87,0,0,0,1.95-2" transform="translate(-230.5 -400.5)" style="fill:#fff"/><path d="M292.45,412.87l-1.26-2.12h-1v2.12h-1v-5.68h2.5a1.72,1.72,0,0,1,1.86,1.78,1.6,1.6,0,0,1-1.35,1.67l1.4,2.23Zm.09-3.91a.89.89,0,0,0-1-.9H290.2v1.81h1.37a.9.9,0,0,0,1-.91" transform="translate(-230.5 -400.5)" style="fill:#fff"/><path d="M294.52,410a2.91,2.91,0,1,1,2.91,2.94,2.82,2.82,0,0,1-2.91-2.94m4.79,0a1.89,1.89,0,1,0-1.88,2.06,1.89,1.89,0,0,0,1.88-2.06" transform="translate(-230.5 -400.5)" style="fill:#fff"/><rect x="71" y="6.68" width="1" height="5.69" style="fill:#fff"/><path d="M303.92,412.87v-5.68H306a2.84,2.84,0,1,1,0,5.68ZM308,410a1.84,1.84,0,0,0-1.94-2h-1.13V412H306a1.87,1.87,0,0,0,1.95-2" transform="translate(-230.5 -400.5)" style="fill:#fff"/><path d="M316.59,412.87l-.42-1.1h-2.61l-.42,1.1H312l2.23-5.68h1.25l2.23,5.68Zm-1.73-4.69-1,2.71h2.05Z" transform="translate(-230.5 -400.5)" style="fill:#fff"/><path d="M318.54,412.87v-5.68h2.51a1.78,1.78,0,1,1,0,3.55h-1.51v2.13Zm3.34-3.9a.89.89,0,0,0-1-.91h-1.37v1.8h1.37a.89.89,0,0,0,1-.89" transform="translate(-230.5 -400.5)" style="fill:#fff"/><path d="M324,412.87v-5.68h2.5a1.78,1.78,0,1,1,0,3.55h-1.51v2.13Zm3.33-3.9a.89.89,0,0,0-1-.91h-1.38v1.8h1.38a.89.89,0,0,0,1-.89" transform="translate(-230.5 -400.5)" style="fill:#fff"/><path d="M331.51,410a2.91,2.91,0,1,1,2.91,2.94,2.82,2.82,0,0,1-2.91-2.94m4.79,0a1.89,1.89,0,1,0-1.88,2.06A1.89,1.89,0,0,0,336.3,410" transform="translate(-230.5 -400.5)" style="fill:#fff"/><polygon points="111.95 12.37 108.99 8.3 108.99 12.37 107.99 12.37 107.99 6.68 109.02 6.68 111.92 10.62 111.92 6.68 112.92 6.68 112.92 12.37 111.95 12.37" style="fill:#fff"/><g style="clip-path:url(#clip-path)"><polygon points="16.35 22.66 13.69 11.12 27.34 7.97 30 19.52 16.35 22.66" style="fill:url(#未命名漸層_5)"/></g><g style="clip-path:url(#clip-path-2)"><polygon points="30.7 13.76 35.18 21.43 26.98 26.23 22.49 18.57 30.7 13.76" style="fill:url(#未命名漸層_2)"/></g><g style="clip-path:url(#clip-path-3)"><polygon points="15.78 31.71 10.64 11.85 24.42 8.28 29.56 28.14 15.78 31.71" style="fill:url(#未命名漸層_3)"/></g><g style="clip-path:url(#clip-path-4)"><polygon points="29.23 29.22 15.94 31.04 14.45 20.16 27.74 18.34 29.23 29.22" style="fill:url(#未命名漸層_4)"/></g></svg>
