<svg id="Layer_1" enable-background="new 0 0 64 64" height="512" viewBox="0 0 64 64" width="512" xmlns="http://www.w3.org/2000/svg" fill="#fff"><path d="m30 7h4v2h-4z"/><path d="m56 42c0-4.1-2.2-7.8-5.8-9.7l-8.4-4.5c1-1.5 1.7-3.3 2-5.1l2.6-1.3c1-.5 1.7-1.5 1.7-2.7v-.7c0-1.7-1.3-3-3-3h-1v-4h-.1c-.5-5.1-4.8-9-9.9-9h-4c-5.1 0-9.4 3.9-9.9 9h-.2v4h-1c-1.7 0-3 1.3-3 3v.8c0 1.1.6 2.2 1.7 2.7l2.6 1.3c.3 1.8 1 3.5 2 5.1l-8.4 4.5c-3.7 1.8-5.9 5.5-5.9 9.6v20h50v-13.2l-2-6zm-15.6 6 1.3-4h5.3v4zm8.6-4h5.3l1.3 4h-6.6zm-4.2-12.3c-.7 2.5-2.5 4.5-4.8 5.7l-4.4 2.2-2.1-5.7c.8-.1 1.7-.4 2.4-.8l.9-.5c1.5-.8 2.8-1.9 3.9-3.1zm-14.8 9.5 2-5.3 2 5.3v7.8c0 .6-.4 1-1 1h-2c-.6 0-1-.4-1-1zm15-24.2c.6 0 1 .4 1 1v.8c0 .4-.2.7-.6.9l-1.4.7v-.1-3.3zm-15-13h4c4 0 7.4 3 7.9 7h-19.8c.5-4 3.9-7 7.9-7zm11.1 9-.4.5c-3.4 4.8-10.1 5.9-14.9 2.5-1-.7-1.8-1.5-2.5-2.5l-.4-.5zm-22.5 6.7c-.3-.2-.6-.5-.6-.9v-.8c0-.6.4-1 1-1h1v3.3.1zm3.4-4.6c4.2 5.5 12.2 6.6 17.7 2.3.9-.7 1.7-1.4 2.3-2.3v5.2c0 4.4-2.4 8.4-6.3 10.5l-.9.5c-1.8 1-4 1-5.7 0l-.9-.5c-3.9-2.1-6.3-6.1-6.3-10.5v-5.2zm5.3 17.5.9.5c.8.4 1.6.7 2.4.8l-2.1 5.7-4.5-2.2c-2.3-1.2-4.1-3.2-4.8-5.7l4.2-2.2c1.1 1.2 2.4 2.3 3.9 3.1zm-6.3 27.4v-11h-2v11h-9v-18c0-3.3 1.8-6.4 4.8-7.9l2.7-1.4c1 2.8 3 5.2 5.7 6.5l4.9 2.4v7.4c0 1.7 1.3 3 3 3h2c1.7 0 3-1.3 3-3v-7.4l4.9-2.4c2.7-1.3 4.7-3.7 5.7-6.5l2.7 1.4c2.9 1.6 4.8 4.6 4.8 7.9h-13.9l-2.3 6.8v11.2zm19 0v-10h16v10z"/><path d="m21 44h6v2h-6z"/><path d="m42 55h6v2h-6z"/></svg>
