<svg xmlns="http://www.w3.org/2000/svg" xmlns:xlink="http://www.w3.org/1999/xlink" width="25" height="21" viewBox="0 0 25 21">
  <defs>
    <style>
      .cls-1 {
        fill-rule: evenodd;
        filter: url(#filter);
      }
    </style>
    <filter id="filter" x="5" y="0" width="16" height="21" filterUnits="userSpaceOnUse">
      <feFlood result="flood" flood-color="#f5ba23"/>
      <feComposite result="composite" operator="in" in2="SourceGraphic"/>
      <feBlend result="blend" in2="SourceGraphic"/>
    </filter>
  </defs>
  <path id="icon" class="cls-1" d="M19.063,0H6.936A1.929,1.929,0,0,0,5,1.916V19.083A1.929,1.929,0,0,0,6.936,21H19.063A1.929,1.929,0,0,0,21,19.083V1.916A1.929,1.929,0,0,0,19.063,0ZM20.3,19.083A1.229,1.229,0,0,1,19.063,20.3H6.936A1.229,1.229,0,0,1,5.7,19.083V1.916A1.229,1.229,0,0,1,6.936.694H19.063A1.23,1.23,0,0,1,20.3,1.916V19.083ZM18.776,1.853H7.224a0.35,0.35,0,0,0-.351.348V6.8a0.349,0.349,0,0,0,.351.348H18.776A0.349,0.349,0,0,0,19.127,6.8V2.2A0.35,0.35,0,0,0,18.776,1.853Zm-0.351,4.6H7.575v-3.9h10.85v3.9h0ZM8.3,8.607H7.85A1.181,1.181,0,0,0,6.664,9.781v0.446A1.182,1.182,0,0,0,7.85,11.4H8.3a1.182,1.182,0,0,0,1.186-1.174V9.781A1.181,1.181,0,0,0,8.3,8.607Zm0.484,1.619a0.482,0.482,0,0,1-.484.479H7.85a0.482,0.482,0,0,1-.484-0.479V9.781A0.482,0.482,0,0,1,7.85,9.3H8.3a0.482,0.482,0,0,1,.484.479v0.446Zm2.8-1.619H11.133A1.181,1.181,0,0,0,9.947,9.781v0.446A1.182,1.182,0,0,0,11.133,11.4h0.451a1.182,1.182,0,0,0,1.186-1.174V9.781A1.181,1.181,0,0,0,11.584,8.607Zm0.484,1.619a0.482,0.482,0,0,1-.484.479h-0.45a0.482,0.482,0,0,1-.484-0.479V9.781A0.482,0.482,0,0,1,11.133,9.3h0.45a0.482,0.482,0,0,1,.484.479v0.446Zm2.8-1.619H14.416A1.181,1.181,0,0,0,13.23,9.781v0.446A1.182,1.182,0,0,0,14.416,11.4h0.451a1.182,1.182,0,0,0,1.186-1.174V9.781A1.181,1.181,0,0,0,14.867,8.607Zm0.484,1.619a0.482,0.482,0,0,1-.484.479h-0.45a0.482,0.482,0,0,1-.484-0.479V9.781A0.482,0.482,0,0,1,14.416,9.3h0.45a0.482,0.482,0,0,1,.484.479v0.446Zm2.8-1.619H17.7a1.181,1.181,0,0,0-1.186,1.174v0.446A1.182,1.182,0,0,0,17.7,11.4h0.45a1.182,1.182,0,0,0,1.186-1.174V9.781A1.181,1.181,0,0,0,18.15,8.607Zm0.484,1.619a0.482,0.482,0,0,1-.484.479H17.7a0.482,0.482,0,0,1-.484-0.479V9.781A0.482,0.482,0,0,1,17.7,9.3h0.45a0.482,0.482,0,0,1,.484.479v0.446ZM8.3,12.105H7.85a1.181,1.181,0,0,0-1.186,1.174v0.446A1.182,1.182,0,0,0,7.85,14.9H8.3a1.182,1.182,0,0,0,1.186-1.174V13.279A1.181,1.181,0,0,0,8.3,12.105Zm0.484,1.619A0.482,0.482,0,0,1,8.3,14.2H7.85a0.482,0.482,0,0,1-.484-0.479V13.279A0.482,0.482,0,0,1,7.85,12.8H8.3a0.482,0.482,0,0,1,.484.479v0.446Zm2.8-1.619H11.133a1.181,1.181,0,0,0-1.186,1.174v0.446A1.181,1.181,0,0,0,11.133,14.9h0.451a1.182,1.182,0,0,0,1.186-1.174V13.279A1.181,1.181,0,0,0,11.584,12.105Zm0.484,1.619a0.482,0.482,0,0,1-.484.479h-0.45a0.482,0.482,0,0,1-.484-0.479V13.279a0.482,0.482,0,0,1,.484-0.479h0.45a0.482,0.482,0,0,1,.484.479v0.446Zm2.8-1.619H14.416a1.181,1.181,0,0,0-1.186,1.174v0.446A1.181,1.181,0,0,0,14.416,14.9h0.451a1.181,1.181,0,0,0,1.186-1.174V13.279A1.181,1.181,0,0,0,14.867,12.105Zm0.484,1.619a0.482,0.482,0,0,1-.484.479h-0.45a0.482,0.482,0,0,1-.484-0.479V13.279a0.482,0.482,0,0,1,.484-0.479h0.45a0.482,0.482,0,0,1,.484.479v0.446ZM8.3,15.6H7.85a1.181,1.181,0,0,0-1.186,1.174v0.446A1.182,1.182,0,0,0,7.85,18.4H8.3a1.182,1.182,0,0,0,1.186-1.174V16.777A1.181,1.181,0,0,0,8.3,15.6Zm0.484,1.619A0.482,0.482,0,0,1,8.3,17.7H7.85a0.482,0.482,0,0,1-.484-0.479V16.777A0.482,0.482,0,0,1,7.85,16.3H8.3a0.482,0.482,0,0,1,.484.479v0.446Zm2.8-1.619H11.133a1.181,1.181,0,0,0-1.186,1.174v0.446A1.182,1.182,0,0,0,11.133,18.4h0.451a1.182,1.182,0,0,0,1.186-1.174V16.777A1.181,1.181,0,0,0,11.584,15.6Zm0.484,1.619a0.482,0.482,0,0,1-.484.479h-0.45a0.482,0.482,0,0,1-.484-0.479V16.777a0.482,0.482,0,0,1,.484-0.479h0.45a0.482,0.482,0,0,1,.484.479v0.446Zm2.8-1.619H14.416a1.181,1.181,0,0,0-1.186,1.174v0.446A1.182,1.182,0,0,0,14.416,18.4h0.451a1.182,1.182,0,0,0,1.186-1.174V16.777A1.181,1.181,0,0,0,14.867,15.6Zm0.484,1.619a0.482,0.482,0,0,1-.484.479h-0.45a0.482,0.482,0,0,1-.484-0.479V16.777a0.482,0.482,0,0,1,.484-0.479h0.45a0.482,0.482,0,0,1,.484.479v0.446Zm2.8-5.118H17.7a1.182,1.182,0,0,0-1.186,1.174v3.944A1.182,1.182,0,0,0,17.7,18.4h0.45a1.181,1.181,0,0,0,1.186-1.174V13.279A1.181,1.181,0,0,0,18.15,12.1Zm0.484,5.118a0.482,0.482,0,0,1-.484.479H17.7a0.482,0.482,0,0,1-.484-0.479V13.279A0.482,0.482,0,0,1,17.7,12.8h0.45a0.482,0.482,0,0,1,.484.479v3.944Z"/>
</svg>
