<svg xmlns="http://www.w3.org/2000/svg" xmlns:xlink="http://www.w3.org/1999/xlink" width="25" height="21" viewBox="0 0 25 21">
  <defs>
    <style>
      .cls-1 {
        fill-rule: evenodd;
        filter: url(#filter);
      }
    </style>
    <filter id="filter" x="1" y="1.844" width="23.438" height="16.344" filterUnits="userSpaceOnUse">
      <feFlood result="flood" flood-color="#136697"/>
      <feComposite result="composite" operator="in" in2="SourceGraphic"/>
      <feBlend result="blend" in2="SourceGraphic"/>
    </filter>
  </defs>
  <path id="icon" class="cls-1" d="M6.469,14.3a1.167,1.167,0,1,0,1.172,1.167A1.169,1.169,0,0,0,6.469,14.3Zm0,1.556a0.389,0.389,0,1,1,.39-0.389A0.39,0.39,0,0,1,6.469,15.851ZM18.97,14.3a1.167,1.167,0,1,0,1.172,1.167A1.169,1.169,0,0,0,18.97,14.3Zm0,1.556a0.389,0.389,0,1,1,.391-0.389A0.39,0.39,0,0,1,18.97,15.851ZM24.141,8.76L21.45,5.743a1.176,1.176,0,0,0-.878-0.392H17.017V3.018a1.171,1.171,0,0,0-1.172-1.167H2.172A1.171,1.171,0,0,0,1,3.018V13.129a0.39,0.39,0,0,0,.391.389H1.781v1.166a1.171,1.171,0,0,0,1.172,1.167H3.765a2.733,2.733,0,0,0,5.407,0h7.094a2.733,2.733,0,0,0,5.407,0h1.594a1.171,1.171,0,0,0,1.172-1.167V9.536A1.161,1.161,0,0,0,24.141,8.76ZM1.781,12.74V3.018a0.39,0.39,0,0,1,.39-0.389H15.845a0.39,0.39,0,0,1,.391.389V12.74H1.781Zm1.984,2.334H2.953a0.391,0.391,0,0,1-.391-0.389V13.518h2A2.711,2.711,0,0,0,3.765,15.074Zm2.7,2.333a1.944,1.944,0,1,1,1.953-1.945A1.949,1.949,0,0,1,6.469,17.407Zm3.907-2.333h-1.2a2.709,2.709,0,0,0-.793-1.556h2v1.556Zm3.516,0H11.157V13.518h2.734v1.556Zm2.375,0H14.673V13.518H17.06A2.71,2.71,0,0,0,16.267,15.074Zm2.7,2.333a1.944,1.944,0,1,1,1.953-1.945A1.949,1.949,0,0,1,18.97,17.407Zm4.688-2.723a0.391,0.391,0,0,1-.391.389H21.673a2.733,2.733,0,0,0-2.7-2.334H17.017V6.129h1.563v3.889a1.172,1.172,0,0,0,1.172,1.167h3.906v3.5Zm0-4.277H19.751a0.39,0.39,0,0,1-.391-0.389V6.129h1.211a0.393,0.393,0,0,1,.294.13l2.692,3.019a0.389,0.389,0,0,1,.1.258v0.871h0ZM12.318,6.593V11.41H10.5V9.326A0.331,0.331,0,0,0,10.168,9H7.84a0.331,0.331,0,0,0-.331.33V11.41H5.7V6.593H5.039V11.74a0.331,0.331,0,0,0,.331.331H7.84a0.331,0.331,0,0,0,.331-0.331V9.657H9.837V11.74a0.331,0.331,0,0,0,.331.331h2.482a0.331,0.331,0,0,0,.331-0.331V6.593H12.318Zm1.715,0.883L9.236,2.99a0.331,0.331,0,0,0-.45,0L3.9,7.474a0.331,0.331,0,0,0,.448.487l4.66-4.278,4.574,4.276A0.331,0.331,0,1,0,14.033,7.476Z"/>
</svg>
