<svg xmlns="http://www.w3.org/2000/svg" xmlns:xlink="http://www.w3.org/1999/xlink" width="25" height="21" viewBox="0 0 25 21">
  <defs>
    <style>
      .cls-1 {
        fill-rule: evenodd;
        filter: url(#filter);
      }
    </style>
    <filter id="filter" x="0.719" y="2.594" width="23.469" height="16.344" filterUnits="userSpaceOnUse">
      <feFlood result="flood" flood-color="#e60012"/>
      <feComposite result="composite" operator="in" in2="SourceGraphic"/>
      <feBlend result="blend" in2="SourceGraphic"/>
    </filter>
  </defs>
  <path id="icon" class="cls-1" d="M6.2,15.036A1.167,1.167,0,1,0,7.375,16.2,1.17,1.17,0,0,0,6.2,15.036Zm0,1.556A0.389,0.389,0,1,1,6.593,16.2,0.39,0.39,0,0,1,6.2,16.592Zm12.5-1.556A1.167,1.167,0,1,0,19.875,16.2,1.17,1.17,0,0,0,18.7,15.036Zm0,1.556a0.389,0.389,0,1,1,.391-0.389A0.39,0.39,0,0,1,18.7,16.592ZM23.875,9.5L21.184,6.484a1.175,1.175,0,0,0-.879-0.392H16.75V3.759a1.17,1.17,0,0,0-1.172-1.167H1.905A1.17,1.17,0,0,0,.733,3.759V13.87a0.39,0.39,0,0,0,.391.389H1.515v1.167a1.17,1.17,0,0,0,1.172,1.167H3.5a2.733,2.733,0,0,0,5.407,0H16a2.733,2.733,0,0,0,5.407,0H23a1.17,1.17,0,0,0,1.172-1.167V10.276A1.162,1.162,0,0,0,23.875,9.5Zm-22.36,3.98V3.759A0.39,0.39,0,0,1,1.905,3.37H15.578a0.39,0.39,0,0,1,.391.389v9.722H1.515ZM3.5,15.814H2.686a0.389,0.389,0,0,1-.39-0.389V14.259h2A2.714,2.714,0,0,0,3.5,15.814Zm2.7,2.334A1.944,1.944,0,1,1,8.156,16.2,1.949,1.949,0,0,1,6.2,18.148Zm3.907-2.334h-1.2a2.71,2.71,0,0,0-.793-1.555h2v1.555Zm3.516,0H10.89V14.259h2.735v1.555Zm2.375,0H14.407V14.259h2.387A2.71,2.71,0,0,0,16,15.814Zm2.7,2.334A1.944,1.944,0,1,1,20.657,16.2,1.949,1.949,0,0,1,18.7,18.148Zm4.688-2.722a0.39,0.39,0,0,1-.391.389H21.407a2.732,2.732,0,0,0-2.7-2.333H16.75V6.87h1.563v3.889a1.17,1.17,0,0,0,1.172,1.167h3.907v3.5Zm0-4.278H19.485a0.39,0.39,0,0,1-.39-0.389V6.87h1.211A0.389,0.389,0,0,1,20.6,7l2.692,3.018a0.39,0.39,0,0,1,.1.259v0.871h0Zm-12.3-4.62H5.5l1.143-1.14A0.411,0.411,0,1,0,6.06,4.806L4.213,6.647a0.41,0.41,0,0,0,0,.581L6.06,9.07a0.411,0.411,0,1,0,.583-0.581L5.5,7.349h5.588a1.613,1.613,0,1,1,0,3.227h-3.4a0.411,0.411,0,1,0,0,.822h3.4A2.435,2.435,0,1,0,11.087,6.527Z"/>
</svg>
