<svg id="group" xmlns="http://www.w3.org/2000/svg" viewBox="0 0 118.42 86.25">
  <title>logo-short</title>
  <g id="house">
    <path id="outline" d="M434.49,340.33a5,5,0,0,1-2.23-.46,8.36,8.36,0,0,1-1.63-1,1.5,1.5,0,0,0-1.45-.24,3.26,3.26,0,0,1-1.06.2h-4.67a3.29,3.29,0,0,1-.63-.07,1.73,1.73,0,0,0-.32,0h-3.8a3.32,3.32,0,0,1-2.32-.89,1.48,1.48,0,0,0-1-.41,2.21,2.21,0,0,0-.35,0,4.79,4.79,0,0,1-1.13.14,5,5,0,0,1-1.27-.17,1.65,1.65,0,0,0-.38-.05,1.48,1.48,0,0,0-1,.4,3.43,3.43,0,0,1-.68.49,3.27,3.27,0,0,1-1.56.38h-9.14a3.5,3.5,0,0,1-1.5-.34,1.5,1.5,0,0,0-1.51.12l-.08.06-.19.13a6.1,6.1,0,0,1-3.32.92,6.83,6.83,0,0,1-4.25-1.47,1.47,1.47,0,0,0-.93-.33,1.41,1.41,0,0,0-.72.19,3.59,3.59,0,0,1-1.7.41l-8.49-.09h-2.22l-2.13,0-7.58.13h-.43a3.25,3.25,0,0,1-3.3-3.3,3.16,3.16,0,0,1,1.57-2.77,1.5,1.5,0,0,0,.57-2,3.1,3.1,0,0,1-.32-1.13,2.91,2.91,0,0,1,.26-1.44,1.55,1.55,0,0,0,.09-.95,3.59,3.59,0,0,1-.09-.78,3.15,3.15,0,0,1,.47-1.58,1.43,1.43,0,0,0,.21-.72,3,3,0,0,1,.75-1.89,3.3,3.3,0,0,1,2-1.25,10.33,10.33,0,0,1,1.49-.12l6.1-.12a1.5,1.5,0,0,0,1.47-1.49v-2.71c0-1.2,0-2.41,0-3.61,0-.92,0-1.85,0-2.78,0-1.5.1-3,.19-4.43v-.17c.09-1.46.22-2.94.33-4.2a1.31,1.31,0,0,0,0-.28c0-.11,0-.33-.07-.5s-.06-.4-.08-.6a5.18,5.18,0,0,1,.12-1.83,1.53,1.53,0,0,0-.3-1.32l0,0-.1-.12a3,3,0,0,1-.47-2.47l.18-.74c.13-.53.26-1,.39-1.55s.35-1.3.53-1.95c.48-1.83,1-3.66,1.55-5.48.43-1.37,1-2.68,1.48-3.94.22-.53.43-1.06.64-1.58,1.49-3.84,2.92-7.87,4.34-12.31.74-2.29,1.61-4.5,2.46-6.64l1-2.51a3.42,3.42,0,0,1,2.8-2.17,73.86,73.86,0,0,1,8.2-.58c.94,0,1.87,0,2.75.1,1.6.12,3.25.18,5,.18,1.29,0,2.6,0,4-.09,3-.13,6.5-.28,10-.28,1.62,0,3.13,0,4.6.1l3.81.17h.07c1.88.09,3.82.19,5.72.25,1.65,0,3.4.07,4.94.09l3.46.05c1.31,0,2.58.12,3.54.2A3.82,3.82,0,0,1,450,257l.26.44c.66,1.08,1.35,2.2,2,3.37,2.25,4.16,4.79,8,7.48,12.16l.19.28,1.38,2.12c1.66,2.57,3.29,5.19,4.87,7.73.69,1.13,1.39,2.25,2.08,3.36a3.72,3.72,0,0,1-.14,4.83c-.21.3-.43.58-.67.86a1.49,1.49,0,0,0,.15,2.09,18.23,18.23,0,0,1,2.76,3.1,26,26,0,0,1,2.06,3.38,1.5,1.5,0,0,0,1.33.82,1.75,1.75,0,0,0,.32,0,4.2,4.2,0,0,1,.93-.1,4.35,4.35,0,0,1,4,2.76,7,7,0,0,1,0,5.66,4.68,4.68,0,0,1-2,2.23,1.49,1.49,0,0,0-.77,1.56,57.05,57.05,0,0,1,.79,7.57c0,.79.06,1.49.11,2.17a15.36,15.36,0,0,1-.41,4.43v.07c-.05.27-.11.53-.15.8-.16.88-.36,1.73-.55,2.54l0,.14a4.57,4.57,0,0,1-4.2,3.52l-1.79.08a1.51,1.51,0,0,0-1.17.63,6.85,6.85,0,0,1-5.57,3.11h-.14a8.39,8.39,0,0,1-2.6-.4,1.53,1.53,0,0,0-1.31.19,3.16,3.16,0,0,1-1.78.57h-7.93a3.5,3.5,0,0,1-.65-.07,1.54,1.54,0,0,0-.3,0l-1.52,0-4.63-.08-.91,0h-.06l-.42,0a3.85,3.85,0,0,1-.77-.11,1.41,1.41,0,0,0-.35-.05,1.49,1.49,0,0,0-.91.31,6.84,6.84,0,0,1-3.1,1.31l-.12,0a4.92,4.92,0,0,1-1.08.13Z" transform="translate(-361.36 -254.21)" fill="#fff" stroke="#003e68" stroke-miterlimit="10" stroke-width="0.25" fill-rule="evenodd"/>
    <g id="house-2" data-name="house">
      <path d="M426.74,314.9h-.52c-.28,0-.57,0-.85,0a.75.75,0,0,1-.78-.75.73.73,0,0,1,.74-.73c.49,0,1,0,1.45,0,.13-4.74.33-9.33.54-12.3H427a2.82,2.82,0,0,1-.82,0,.73.73,0,0,1-.63-.72.71.71,0,0,1,.62-.73,5.7,5.7,0,0,1,1.24-.06c.05-.54.1-1,.15-1.29.7-4.48.29-4.42,6.33-5.35,9.21-1,23,.6,28.25,2.16,0-.29.07-.59.09-.89a1.68,1.68,0,0,0-.38-1.21c-.84-1.05-1.58-2.18-2.34-3.29s-1.47-2.33-2.33-3.4c-1.79-2.22-3.48-4.5-5.08-6.86s-3-4.48-4.48-6.74-2.95-4.54-4.41-6.82c-.32-.51-.57-.52-.92,0l-.11.15a22.28,22.28,0,0,0-2.06,4.15,31.31,31.31,0,0,1-2.52,4.84c-1.49,2.28-2.94,4.58-4.46,6.84-2.17,3.24-4.21,6.55-6.16,9.93-.65,1.11-1.27,2.24-1.92,3.34a.61.61,0,0,1-.5.33c-1.38.18-2.77.12-4.15.21-1.13.08-2.27,0-3.4.07-1.45.09-2.9,0-4.35.08-.86.07-1.74,0-2.61.07-1.72.05-3.45,0-5.16.16-1,.07-2.05.09-3.07.18-1.7.15-3.4.29-5.1.33-1.25,0-2.5.13-3.75.08-.79,0-1.59-.06-2.39-.06h-5.17a4,4,0,0,1-.49,0,7,7,0,0,0-1.83,0,7.43,7.43,0,0,1-1.41.16,2.37,2.37,0,0,0-2.21,2.62,10.17,10.17,0,0,1,.17,1.9c-.13,1.4-.25,2.8-.34,4.21s-.18,3-.19,4.45c0,2.12-.07,4.24-.07,6.36,0,4.56,0,9.12,0,13.69a3.9,3.9,0,0,0,0,.59,1.29,1.29,0,0,0,1.29,1.17c1.43,0,2.87.05,4.3.08,1,0,2-.07,3-.08.54,0,.66-.12.72-.67a12,12,0,0,1,.52-2.64,2.74,2.74,0,0,1,1.25-1.62,5.4,5.4,0,0,1,2.13-.76,4.44,4.44,0,0,1,3.29.81,4.3,4.3,0,0,1,1.64,2.52,8.59,8.59,0,0,0,.4,1.4,1.14,1.14,0,0,0,1,.86c1.16.06,2.32.08,3.48.09l4.16.06c1.22,0,2.44,0,3.67,0,.08,0,.17,0,.25,0h7.65c.09-.06.19,0,.29,0,2.75,0,5.5,0,8.24,0h.38C426.51,329.54,426.55,322.21,426.74,314.9ZM453,288.61a3.7,3.7,0,0,1,1.88.36.69.69,0,0,1,.35.86.8.8,0,0,1-.87.51c-.45-.1-1-.19-1.51-.34a.72.72,0,0,1,.15-1.39Zm-6.76-9.07c.2,0,.4,0,.6,0a3.08,3.08,0,0,1,1,.1.79.79,0,0,1,.64.91.73.73,0,0,1-.87.58c-.42-.06-.84,0-1.26-.08a.74.74,0,0,1-.07-1.47Zm-3.94-3.09a14,14,0,0,1,1.59-.15.73.73,0,0,1,.74.66.75.75,0,0,1-.64.83c-.33.06-.67.08-1,.11s-.47,0-.68,0a.73.73,0,0,1-.62-.69A.68.68,0,0,1,442.25,276.45Zm-5.93,5.66a9.49,9.49,0,0,1,1.41,0,.8.8,0,0,1,.76.82c0,.41-.32.66-.82.68h-.53a5.61,5.61,0,0,1-.82,0,.7.7,0,0,1-.66-.72A.68.68,0,0,1,436.32,282.11Zm-4.67,5.74a1.17,1.17,0,0,1,.25-.07c.61-.06,1.22-.13,1.82-.16a.75.75,0,1,1,.16,1.5c-.5.08-1,.11-1.52.16v0a3.49,3.49,0,0,1-.56,0,.67.67,0,0,1-.6-.62A.7.7,0,0,1,431.65,287.85ZM384.3,316.64a8.19,8.19,0,0,1,1.42-.18H386a.74.74,0,0,1,.7.62.73.73,0,0,1-.51.82,5.68,5.68,0,0,1-1.74.16.73.73,0,0,1-.11-1.42Zm2,4.29a1.11,1.11,0,0,1-.47.14l-1.25.11a.79.79,0,0,1-.87-.67.72.72,0,0,1,.66-.8c.52-.08,1-.13,1.56-.17a.69.69,0,0,1,.77.52A.73.73,0,0,1,386.29,320.93Zm13.9,9.35c0,.16-.08.29-.27.3s-.26-.11-.29-.27c-.09-.41,0-.82-.13-1.23a6.3,6.3,0,0,0-3-4.25,4.51,4.51,0,0,0-4.08-.09,5.42,5.42,0,0,0-1.75,1.13c-.15.14-.32.26-.49.08s0-.35.11-.48a6.15,6.15,0,0,1,4.42-1.72,4.82,4.82,0,0,1,4,2.2,6.49,6.49,0,0,1,1.5,4.06A2.43,2.43,0,0,1,400.19,330.28Zm-.2-12.83a1.21,1.21,0,0,1-.72.18c-.46-.06-.92-.1-1.37-.18a.74.74,0,0,1-.63-.8A.72.72,0,0,1,398,316a16.44,16.44,0,0,1,1.71.15.66.66,0,0,1,.55.54A.73.73,0,0,1,400,317.45Zm3.07-11.95h0c0,1.65,0,3.3,0,4.95a4.78,4.78,0,0,1-.14,1.19.79.79,0,0,1-.84.64,58.09,58.09,0,0,0-5.9.43c-.92.1-1.85.12-2.77.16s-1.71.2-2.57.28a5,5,0,0,1-.67,0c-.54,0-.77-.26-.76-.8,0-1,0-2,.06-3,0-.21,0-.42-.16-.59a.28.28,0,0,1,0-.38c.22-.22.17-.48.18-.74,0-.71,0-1.42.05-2.13,0-.26.06-.52-.16-.74a.27.27,0,0,1,0-.35.8.8,0,0,0,.17-.66c0-1.23,0-2.45-.12-3.67,0-.31.17-.44.45-.41,1.86.18,3.72,0,5.58.05a.48.48,0,0,0,.5-.21.33.33,0,0,1,.59,0,.39.39,0,0,0,.43.21c.63,0,1.25-.08,1.87-.06,1,0,2,0,3,0,1.16,0,1.25,0,1.28,1.17C403.09,302.4,403.06,304,403.06,305.5Zm6.63-4.36c-.49.12-1,.23-1.49.32a.75.75,0,0,1-.9-.72.7.7,0,0,1,.54-.72c.5-.14,1-.26,1.53-.37a.76.76,0,0,1,.94.58A.74.74,0,0,1,409.69,301.14Zm4.65,15.17c-.57,0-1.14-.08-1.71-.13a.77.77,0,0,1-.79-.77.75.75,0,0,1,.83-.72h.58c.37,0,.79,0,1.21.08a.77.77,0,0,1,.77.83A.79.79,0,0,1,414.34,316.31ZM415.85,301a5.23,5.23,0,0,1-1.53,0,.73.73,0,0,1-.68-.76.74.74,0,0,1,.73-.71,6.26,6.26,0,0,1,.75,0h0c.22,0,.45,0,.67,0a.75.75,0,0,1,.75.7A.73.73,0,0,1,415.85,301Zm7.65,4.14-.62.06a5.77,5.77,0,0,1-.61,0,.69.69,0,0,1-.64-.62.7.7,0,0,1,.49-.79,4,4,0,0,1,1.37-.14.73.73,0,0,1,.7.74A.75.75,0,0,1,423.5,305.11Z" transform="translate(-361.36 -254.21)" fill="#fd0" fill-rule="evenodd"/>
      <g>
        <path d="M444.64,260.08c-.8,1.27-1.57,2.45-2.31,3.65-1.8,2.94-3.61,5.87-5.37,8.84-1,1.71-1.93,3.5-3,5.21-2.27,3.79-4.27,7.74-6.45,11.58-.8,1.4-1.79,2.68-2.72,4a.89.89,0,0,1-.58.22c-1.77.16-3.54.29-5.31.44-2.21.18-4.42.45-6.64.56-2.77.13-5.55.16-8.32.2-3.8.05-7.6.1-11.4.11s-7.62-.05-11.43-.11c-.82,0-1.63-.12-2.51-.19.19-.78.36-1.5.56-2.22.66-2.44,1.27-4.9,2-7.31.57-1.82,1.36-3.57,2.05-5.34,1.61-4.12,3.06-8.28,4.41-12.49,1-3,2.24-6,3.39-9a.46.46,0,0,1,.34-.26,56.36,56.36,0,0,1,10.39-.48,77.55,77.55,0,0,0,9.4.1c4.77-.21,9.54-.39,14.32-.18,3.2.13,6.41.32,9.62.43,2.81.09,5.62.08,8.43.14,1.12,0,2.25.1,3.36.19a.8.8,0,0,1,.52.36c.74,1.21,1.49,2.43,2.17,3.68,2.76,5.1,6,9.9,9.17,14.76,2.37,3.65,4.62,7.36,6.92,11,.49.78.48.77-.06,1.53a6.71,6.71,0,0,1-1.91,1.88c-.24-.35-.48-.68-.7-1-1.44-2.32-2.85-4.67-4.33-7-2.38-3.73-4.81-7.42-7.21-11.13a102.62,102.62,0,0,1-6.5-11.51C444.92,260.59,444.8,260.39,444.64,260.08ZM433,263c.35-.67.67-1.3,1-1.92a.36.36,0,0,1,.28-.11c.58,0,1.17,0,1.76,0,1.43.08,2.86.19,4.29.29.24,0,.44-.05.47-.32s-.13-.39-.36-.44l-.19,0c-1.34-.09-2.69-.27-4-.26-5,0-10,.13-15.07.24-2.54,0-5.09.19-7.64.26-2.08.05-4.17.05-6.26.11-3.09.07-6.19.18-9.28.27l-5.84.14c-.24,0-.44.05-.44.34s.25.35.49.34.72-.06,1.08-.07h1.89a6.09,6.09,0,0,1-.63,1.82c-.3.38-.22.72-.32,1.07-.17.57-.38,1.14-.59,1.7a.53.53,0,0,1-.26.27c-.24.11-.25.26-.19.49a.94.94,0,0,1,0,.47c-.29.94-.61,1.87-.9,2.81-1.16,3.72-2.28,7.45-3.47,11.16-.77,2.4-1.64,4.77-2.47,7.15-.25.73-.52,1.46-.79,2.18-.08.23-.11.46.15.58s.45,0,.56-.27a1.42,1.42,0,0,0,.08-.18c.3-.83.58-1.67.89-2.5.38-1,.78-2,1.16-2.95a9.25,9.25,0,0,0,3.15,0,3.26,3.26,0,0,0,.76-.19c.21-.09.37-.29.23-.5a.58.58,0,0,0-.49-.16c-.61.06-1.21.19-1.82.26a7.57,7.57,0,0,1-1.26,0c-.11,0-.29-.22-.27-.29.17-.63.38-1.25.58-1.87a6.23,6.23,0,0,0,3.58-.05.37.37,0,0,0,.33-.46c-.07-.28-.29-.29-.51-.25a7.47,7.47,0,0,1-.92.18,15.11,15.11,0,0,1-1.78,0c-.15,0-.42-.28-.4-.36.18-.78.43-1.54.66-2.34a3.93,3.93,0,0,0,2.58.25,2.1,2.1,0,0,0,.67-.21c.13-.08.17-.29.25-.44a3,3,0,0,0-.48-.22c-.1,0-.21.06-.32.09a3.62,3.62,0,0,1-1.82.09c-.65-.16-.67-.18-.47-.81s.41-1.27.62-1.91l.23.06a3.74,3.74,0,0,0,2.77-.19c.25-.1.43-.27.3-.55s-.35-.23-.57-.13l-.28.11a3,3,0,0,1-1.95.11c-.2-.07-.28-.16-.2-.39.13-.41.24-.84.36-1.26s.2-.62.29-.92a3.39,3.39,0,0,0,.73.32,5.84,5.84,0,0,0,2.84-.32c.11,0,.22-.29.21-.44s-.25-.18-.4-.22-.22,0-.33.06c-.75.09-1.5.19-2.26.24-.35,0-.58-.23-.51-.5.16-.6.36-1.19.52-1.7.85,0,1.64,0,2.42,0a9.18,9.18,0,0,0,1.35-.26c.22-.05.39-.21.29-.43s-.28-.21-.44-.24-.26,0-.4.05c-.74.08-1.48.16-2.23.21a4.24,4.24,0,0,1-.74-.09l.74-2.26a1.58,1.58,0,0,0,.32.06c.92.06,1.84.13,2.76.16.27,0,.57-.06.52-.43s-.35-.33-.61-.31l-.34,0a7.11,7.11,0,0,1-2.41-.23l.7-2.07a5.62,5.62,0,0,0,2.76.11c.26,0,.48-.12.45-.43s-.28-.31-.52-.29c-.48,0-1,.1-1.46.1a6.1,6.1,0,0,1-1-.13c.22-.76.43-1.42.6-2.1a.45.45,0,0,1,.52-.39c1.42,0,2.84,0,4.26,0l.21,0c-.05.17-.1.31-.15.45-.36.94-.75,1.87-1.08,2.83-1,3-2.09,5.91-3,8.9-1.46,4.74-2.82,9.51-4.21,14.26-.2.67-.36,1.35-.51,2-.06.26,0,.5.3.55s.4-.17.45-.4.16-.73.25-1.1.17-.58.26-.89a5.27,5.27,0,0,0,3.29.29c.25,0,.47-.16.41-.47s-.3-.3-.54-.26l-.82.11a3.47,3.47,0,0,1-1.8-.22c-.11-.05-.27-.24-.25-.33.09-.44.24-.88.37-1.33a5.25,5.25,0,0,0,2.94.33,3.24,3.24,0,0,0,.87-.2.59.59,0,0,0,.39-.76c-.5.08-1,.21-1.47.24a15.07,15.07,0,0,1-1.9,0,.44.44,0,0,1-.47-.51c.11-.57.28-1.13.42-1.64a3.59,3.59,0,0,0,.95.41,20.26,20.26,0,0,0,2.46.12c.23,0,.46-.22.66-.37s0-.2,0-.31-.12-.06-.19-.06c-.65,0-1.29.06-1.94,0a6.64,6.64,0,0,1-1.25-.2.38.38,0,0,1-.34-.49c.13-.56.28-1.11.4-1.58h2.65a2.22,2.22,0,0,0,.73-.09c.14-.05.23-.24.34-.37a2.44,2.44,0,0,0-.4-.32c-.07,0-.19,0-.29,0l-2.32.06a2.88,2.88,0,0,1-.49-.09c.23-.86.45-1.68.65-2.41a16.84,16.84,0,0,0,1.9.2,2.39,2.39,0,0,0,1.63-.45c.18-.15.32-.35.14-.58s-.37-.12-.57,0a3,3,0,0,1-2.43.18.64.64,0,0,1-.31-.54,11.79,11.79,0,0,1,.39-1.39,7.73,7.73,0,0,0,4.47-.11c-.47,1.47-.95,2.94-1.4,4.42-.75,2.51-1.46,5-2.2,7.54-.32,1.07-.65,2.13-1,3.19-.07.25-.08.5.22.59s.45-.11.52-.38l.21-.68c.21-.67.42-1.34.63-2a5.76,5.76,0,0,0,3.3.48,5.45,5.45,0,0,0,1.13-.26,1,1,0,0,0,.47-.44.45.45,0,0,0-.06-.45.61.61,0,0,0-.46,0,5.42,5.42,0,0,1-1,.39,9.73,9.73,0,0,1-1.79,0,3.74,3.74,0,0,1-1.07-.31.41.41,0,0,1-.2-.33c.23-.85.49-1.7.72-2.49a5.53,5.53,0,0,0,.82.26,15.44,15.44,0,0,0,4.29-.2.72.72,0,0,0,.45-.22.58.58,0,0,0,.1-.49c0-.08-.3-.13-.45-.11s-.53.13-.8.17c-.62.07-1.24.15-1.86.19a4.43,4.43,0,0,1-2.38-.28c.21-.72.42-1.45.65-2.22a2.17,2.17,0,0,0,1.47.7c.31,0,.62.09.93.12.56.05,1.12.1,1.68.12.23,0,.43-.07.44-.35s-.18-.36-.41-.38h-.23c-.81-.07-1.62-.11-2.42-.24a3.11,3.11,0,0,1-1-.46.5.5,0,0,1-.19-.4,5.09,5.09,0,0,1,.26-.84c.17.07.29.14.42.18a2.18,2.18,0,0,0,.44.11,14.43,14.43,0,0,0,4.25-.15,1.37,1.37,0,0,0,.67-.48c.08-.1,0-.35,0-.54a4.17,4.17,0,0,0-.51.09,2.75,2.75,0,0,1-.56.25c-.93.09-1.86.16-2.8.19a11.9,11.9,0,0,1-1.34-.07c-.23,0-.36-.16-.3-.38.14-.46.31-.91.44-1.29a6.22,6.22,0,0,0,1,.34,14,14,0,0,0,4-.05.8.8,0,0,0,.51-.27.56.56,0,0,0,.05-.49c0-.09-.3-.1-.45-.08s-.45.14-.68.16c-.7.06-1.4.12-2.1.12a10.79,10.79,0,0,1-1.6-.13c-.23,0-.53-.14-.47-.42a13.66,13.66,0,0,1,.48-1.49c.37.11.69.23,1,.3a12.08,12.08,0,0,0,3.65.12,7.35,7.35,0,0,0,.82-.11.37.37,0,0,0,.33-.46c-.05-.25-.25-.29-.46-.27h-.15c-1,.05-2,.15-3,.14a6.94,6.94,0,0,1-1.61-.31c-.12,0-.3-.26-.28-.36.14-.52.32-1,.5-1.58a5.53,5.53,0,0,0,3.39.57,23.07,23.07,0,0,0,2.34-.47.36.36,0,0,0,.3-.51c-.1-.26-.31-.26-.56-.2-.71.16-1.41.35-2.12.44a5,5,0,0,1-2.72-.32c-.21-.09-.36-.22-.28-.45.26-.82.53-1.63.79-2.4.49.17.92.34,1.36.46a11.27,11.27,0,0,0,3.57.2,5.82,5.82,0,0,0,.6-.05c.24-.05.43-.17.39-.46s-.24-.32-.47-.31h-.12c-1,0-2,.09-3.06,0a6.14,6.14,0,0,1-1.65-.45.49.49,0,0,1-.23-.42c.21-.68.47-1.34.69-2,.41.15.79.33,1.18.44a13.29,13.29,0,0,0,4.36,0,.33.33,0,0,0,.33-.44.56.56,0,0,0-.43-.3,11.38,11.38,0,0,0-1.3.1,7.64,7.64,0,0,1-3-.16.94.94,0,0,1-.37-.22,3.49,3.49,0,0,1-.33-.51c.17-.46.35-1,.54-1.52.29.08.55.17.81.22a15.61,15.61,0,0,0,3.92.17c.27,0,.53-.07.5-.41s-.29-.33-.54-.32c-.65,0-1.3.05-1.95,0s-1.38-.14-2.08-.23c-.3,0-.41-.23-.29-.54a8.89,8.89,0,0,0,.37-1.1c.07-.3.22-.36.49-.36,1.66,0,3.32-.07,5-.1h1.5c-.07.19-.11.34-.16.47-.58,1.55-1.17,3.09-1.73,4.64-1.44,4-2.82,8-4.3,12-1.14,3.08-2.39,6.11-3.59,9.17-.4,1-.79,2-1.19,3.07,0,.05-.06.1,0,.14s.13.33.19.5a2.81,2.81,0,0,0,.5-.22c.07-.05.09-.17.13-.27.32-.78.65-1.56,1-2.35h.15a9.28,9.28,0,0,0,3.24.06,2.07,2.07,0,0,0,.88-.37c.11-.07.08-.34.12-.52a2.5,2.5,0,0,0-.54,0c-.2,0-.39.2-.59.21-.76.05-1.52.07-2.28.08a4.24,4.24,0,0,1-.72-.13l.84-2c1.08,0,2.07,0,3.07,0a1.59,1.59,0,0,0,.72-.25.46.46,0,0,0,.06-.42.44.44,0,0,0-.37-.15c-.87,0-1.74.08-2.61.1a2.65,2.65,0,0,1-.58-.09c.25-.71.48-1.38.72-2l.27.05a7.61,7.61,0,0,0,3.15.17,1.8,1.8,0,0,0,.76-.4c.07-.05,0-.32,0-.42s-.27-.09-.4-.07c-.37.06-.74.2-1.12.24a6.34,6.34,0,0,1-2.35-.27c.22-.56.43-1.09.62-1.6l.08,0,.29.08a6.14,6.14,0,0,0,2.86.09c.25-.05.42-.18.37-.46s-.28-.29-.5-.26l-.22,0a5.58,5.58,0,0,1-2.23-.07c-.19-.05-.35-.11-.26-.35l.81-2.09a9.28,9.28,0,0,0,4.31.31c-.32,1-.66,2-1,3-.71,2.21-1.32,4.45-2.24,6.59-.43,1-.77,2-1.15,3.05-.09.26-.2.57.15.71s.47-.16.57-.43c.24-.63.47-1.26.7-1.9,0-.08.08-.16.13-.26a2,2,0,0,0,1.4.55c.78,0,1.57,0,2.35,0,.27,0,.5-.09.48-.4s-.24-.33-.49-.33c-.63,0-1.27,0-1.91,0a3.48,3.48,0,0,1-1-.14.58.58,0,0,1-.44-.86c.16-.48.37-.94.57-1.43a6.27,6.27,0,0,0,3.4.57c.27,0,.53-.1.49-.44s-.28-.32-.54-.3a6.79,6.79,0,0,1-1,0,13.47,13.47,0,0,1-1.55-.23c-.27-.05-.53-.22-.44-.58s.28-.93.4-1.33c.84,0,1.62.09,2.4.08a3.91,3.91,0,0,0,1.06-.21.34.34,0,0,0,.22-.51.58.58,0,0,0-.49-.16,5.78,5.78,0,0,1-2.34.13,4,4,0,0,1-.61-.11c.26-.82.49-1.59.74-2.38l.54.13a7.84,7.84,0,0,0,3.27-.08c.25-.05.45-.19.37-.49s-.32-.27-.55-.23c-.38.06-.76.15-1.15.18a4.78,4.78,0,0,1-2.26-.23q1-2.7,1.9-5.32a7.86,7.86,0,0,0,1.29.25c.79,0,1.59,0,2.39-.05.25,0,.47-.16.4-.47s-.29-.3-.53-.25l-.3,0a6.53,6.53,0,0,1-2.64-.13c-.11,0-.29-.2-.28-.25.2-.61.42-1.21.64-1.84a5.58,5.58,0,0,0,3.33.37c.13,0,.31,0,.38-.09a1.88,1.88,0,0,0,.25-.49,1.22,1.22,0,0,0-.46-.19,5,5,0,0,0-.66.09,4.41,4.41,0,0,1-2.25-.21c-.12,0-.29-.25-.26-.32.22-.69.48-1.38.74-2.09a7.28,7.28,0,0,0,4.21.09,1.12,1.12,0,0,0,.55-.39.48.48,0,0,0-.06-.46c-.08-.08-.31,0-.46,0a3.47,3.47,0,0,1-.45.17,13.39,13.39,0,0,1-1.67.22,3.8,3.8,0,0,1-1.83-.32c.15-.38.28-.73.42-1.08l.43-1.09a2.42,2.42,0,0,0,1.85.45c.66,0,1.32-.15,2-.26a.36.36,0,0,0,.34-.45c-.07-.26-.27-.31-.51-.26s-.24.06-.36.07c-.7.07-1.39.16-2.09.17s-.87-.35-.73-.88a12.83,12.83,0,0,1,.49-1.34,6.43,6.43,0,0,0,3.69-.23c.24-.06.48-.16.41-.47s-.35-.31-.61-.25c-.52.12-1,.28-1.56.37a3.27,3.27,0,0,1-1.64-.09c.2-.6.38-1.18.59-1.82l13.09-.31c-1.29,2.55-2.57,5-3.78,7.47s-2.33,5-3.46,7.42a1.53,1.53,0,0,0-.41-.08c-.23,0-.46.12-.69.18a4,4,0,0,1-3.66-.57c-.19-.13-.41-.45-.37-.61.18-.63.45-1.24.66-1.78.54.22,1,.46,1.55.62a6.65,6.65,0,0,0,2.74.12c.19,0,.38,0,.56-.06s.48-.14.43-.46-.27-.32-.52-.3l-.11,0c-.52.05-1,.12-1.56.14a4.33,4.33,0,0,1-2.18-.45c-.53-.27-.58-.44-.38-1l.65-1.67a3.09,3.09,0,0,1,.14-.32,4.56,4.56,0,0,0,.72.53,4.83,4.83,0,0,0,4.7-.14.39.39,0,0,0,.2-.57c-.13-.23-.35-.2-.56-.11s-.64.3-1,.42a3.94,3.94,0,0,1-3-.18,1.07,1.07,0,0,1-.65-1.22c.14-.44.35-.87.53-1.32a2.13,2.13,0,0,0,1.44.86,10.79,10.79,0,0,0,3.21,0c.24,0,.45-.15.4-.44s-.27-.33-.51-.31c-.58.05-1.15.14-1.72.14a8.51,8.51,0,0,1-1.59-.18,1.25,1.25,0,0,1-.53-.45,3.56,3.56,0,0,1-.3-.59c.23-.53.49-1.14.73-1.72a7.79,7.79,0,0,0,.86.39,8.43,8.43,0,0,0,4.62,0c.27-.07.52-.2.42-.54s-.38-.24-.63-.21a18.5,18.5,0,0,1-2.44.31,7.87,7.87,0,0,1-1.91-.32.67.67,0,0,1-.43-.94c.15-.42.28-.85.42-1.28.07-.21,0-.41-.2-.49s-.38.07-.46.28-.05.12-.07.17c-.26.72-.52,1.44-.8,2.14-1.7,4.29-3.45,8.55-5.08,12.85-1.34,3.5-2.54,7-3.79,10.58-.37,1-.69,2.09-1,3.13-.09.27-.15.59.22.69s.44-.21.52-.48.24-.76.35-1.1c.35.1.66.21,1,.27a6.5,6.5,0,0,0,2.56-.2.71.71,0,0,0,.41-.29.49.49,0,0,0,0-.44c0-.08-.26-.1-.39-.08a9.72,9.72,0,0,1-1.16.27,8.57,8.57,0,0,1-1.52,0,.52.52,0,0,1-.47-.63c.15-.48.32-.94.49-1.43a5.37,5.37,0,0,0,2.67.4,4.19,4.19,0,0,0,.78-.11c.23,0,.4-.17.35-.44s-.25-.31-.49-.28a.7.7,0,0,1-.14,0,6,6,0,0,1-2.5-.08c-.2,0-.45-.13-.36-.41.17-.52.39-1,.57-1.51a3.27,3.27,0,0,0,.79.25c.82,0,1.64,0,2.46,0a1.62,1.62,0,0,0,.66-.13.57.57,0,0,0,.25-.42c0-.1-.23-.21-.38-.27s-.19,0-.29,0c-.77,0-1.54.09-2.32.09-.48,0-.87-.31-.78-.62.15-.55.38-1.09.53-1.52a13.45,13.45,0,0,0,2.07.28,12,12,0,0,0,2.06-.3.39.39,0,0,0,.34-.55c-.11-.28-.35-.22-.57-.16s-.66.18-1,.23a5.07,5.07,0,0,1-2.19-.11c-.24-.07-.43-.2-.35-.47.2-.63.44-1.25.65-1.85a8.57,8.57,0,0,0,1.11.53,5.61,5.61,0,0,0,3.48-.24.51.51,0,0,0,.29-.22.73.73,0,0,0,0-.48c-.05-.08-.29-.12-.43-.09-.64.14-1.27.35-1.91.46a2.62,2.62,0,0,1-2.05-.53.35.35,0,0,1-.14-.48c.16-.41.28-.83.43-1.24s.32-.87.5-1.34c.93,1.38,2.73,1.71,5.14,1a1.83,1.83,0,0,1-.1.28c-.57,1.33-1.15,2.66-1.73,4l-3.9,8.77a1.68,1.68,0,0,0-.19.6.64.64,0,0,0,.22.47c.23.12.4-.05.49-.27l.31-.79c1.07.94,2.3.78,3.64.61-.36.56-.66,1-1,1.49a.33.33,0,0,1-.26.1c-1.93.13-3.86.27-5.79.36-2.24.11-4.47.18-6.71.25-1.53.05-3.07.12-4.6.11-3.63,0-7.25-.09-10.87-.12-.63,0-1.27.12-1.9.14l-8.81.16a10.27,10.27,0,0,0-1.24,0,10.34,10.34,0,0,1-2.94-.14c-.24,0-.45,0-.51.22s.12.44.36.48a18.13,18.13,0,0,0,1.93.23c1.3,0,2.6,0,3.9,0l6.67-.14c1.88-.05,3.77-.15,5.65-.18,1.7,0,3.4,0,5.1.05,3.06.18,6.12.05,9.17-.07,3.46-.13,6.91-.38,10.37-.53a1.43,1.43,0,0,0,1.28-.73q.76-1.24,1.47-2.52c1.11-2,2.19-4.06,3.29-6.08.43-.8.86-1.58,1.27-2.38s.88-1.53,1.31-2.3c.8-1.45,1.66-2.86,2.51-4.27.22-.36.52-.68.78-1A.77.77,0,0,0,435,273c.07-.17.1-.36.18-.52.55-1.08,1.31-2,1.9-3.09.72-1.32,1.51-2.61,2.26-3.91.43-.74.85-1.48,1.27-2.22.13-.22.24-.49-.05-.65s-.44.05-.58.29a.92.92,0,0,1-.33.32,8.86,8.86,0,0,1-4.86.47A4,4,0,0,1,433,263Zm-48.21,20.73a11.07,11.07,0,0,0,3.11-.7.38.38,0,0,0,.28-.5c-.1-.26-.32-.26-.54-.2s-.54.19-.81.27a5,5,0,0,1-3.3.17c-.32-.12-.33.16-.26.31a.78.78,0,0,0,.41.39A8.16,8.16,0,0,0,384.76,283.75Zm-2.55,2.14c-.23.3-.18.57.11.7a2.62,2.62,0,0,0,1,.28,8,8,0,0,0,3.43-.77.53.53,0,0,0,.25-.45c-.07-.34-.36-.27-.6-.2-.65.2-1.28.44-1.93.6A3,3,0,0,1,382.21,285.89Zm3.45-7.84a13.9,13.9,0,0,0,3.69-.75c.27-.11.65-.22.48-.62s-.48-.16-.74-.08a9.72,9.72,0,0,1-3.77.67.32.32,0,0,0-.19.59A2.28,2.28,0,0,0,385.66,278.05Zm.51,2.77a8.33,8.33,0,0,0,2.71-.9c.25-.12.49-.29.33-.6s-.43-.17-.68-.07c-.53.23-1,.46-1.59.65a2.43,2.43,0,0,1-2-.1.48.48,0,0,0-.26-.05c-.06.1-.13.25-.09.33a.83.83,0,0,0,.37.39A11.85,11.85,0,0,0,386.17,280.82Zm1.12-9.69a.71.71,0,0,0,.68.87,7.33,7.33,0,0,0,3.31-.43.32.32,0,0,0,.21-.48.58.58,0,0,0-.45-.2,3.38,3.38,0,0,0-.6.17A5.45,5.45,0,0,1,387.29,271.13Zm-6.46,19.57c-.11.31-.11.39.13.48a4.73,4.73,0,0,0,1.31.36,8.29,8.29,0,0,0,1.78-.19,3.16,3.16,0,0,0,1-.38c.11-.06.11-.31.17-.47a1.41,1.41,0,0,0-.49-.14c-.23,0-.44.19-.67.24A6.27,6.27,0,0,1,380.83,290.7ZM389.42,264a.71.71,0,0,0,.44.85,5.13,5.13,0,0,0,3.59.37c.12,0,.28-.3.27-.44s-.26-.27-.47-.23a4.5,4.5,0,0,1-.51.08A5.93,5.93,0,0,1,389.42,264Zm-1.51,23.16a1.36,1.36,0,0,0-.13.53c0,.3.3.41.57.44a10.7,10.7,0,0,0,3.19-.28.35.35,0,0,0,.33-.45c-.06-.26-.27-.3-.5-.26-.49.08-1,.2-1.47.24S388.59,287.71,387.91,287.19Zm-.57,2.65a.81.81,0,0,0,.65,1.06,6.35,6.35,0,0,0,3.18-.09.36.36,0,0,0,.28-.49c-.08-.23-.27-.24-.49-.21-.63.09-1.26.18-1.9.22A1.75,1.75,0,0,1,387.34,289.84Zm27.25-13.3c-.11.38,0,.61.48.74a8.27,8.27,0,0,0,2.93.21.7.7,0,0,0,.44-.17.62.62,0,0,0,.15-.48c0-.08-.29-.18-.43-.15A9.35,9.35,0,0,1,414.59,276.54Zm-25.29-7.22c.73-.15,1.47-.29,2.21-.46.47-.11.65-.32.55-.56s-.47-.22-.74-.16a6.18,6.18,0,0,1-2.76.35,1.44,1.44,0,0,0-.43.09c.08.16.12.41.25.48A4.36,4.36,0,0,0,389.3,269.32ZM387,273.85a.5.5,0,0,0,.26.7,2.18,2.18,0,0,0,.6.18,5.4,5.4,0,0,0,2.67-.36c.24-.08.42-.22.34-.49s-.34-.28-.56-.2A4.88,4.88,0,0,1,387,273.85Zm-1.73,14.87c.25-.07.45-.23.35-.52s-.35-.25-.59-.17a12.63,12.63,0,0,1-1.32.42c-.49.1-1,.11-1.49.19-.13,0-.34.16-.34.24a.66.66,0,0,0,.21.45A18,18,0,0,0,385.22,288.72ZM391,267.44a2.78,2.78,0,0,0,1.78-.48.54.54,0,0,0,.16-.46c-.07-.23-.3-.24-.5-.13a3.54,3.54,0,0,1-2.48.22c-.24,0-.47-.07-.55.21s.15.42.38.47C390.19,267.35,390.6,267.39,391,267.44Zm13.43,22.81c-.16.27,0,.6.49.66a13.56,13.56,0,0,0,2,.07,1.2,1.2,0,0,0,.69-.38c.19-.19.07-.37-.2-.37s-.35,0-.52,0Zm7.71,1a2.07,2.07,0,0,0,1.46-.49c.1-.1.08-.32.12-.49-.16,0-.36-.14-.46-.08a3.19,3.19,0,0,1-2.33.18c-.09,0-.25,0-.26,0s-.08.26,0,.34a.79.79,0,0,0,.39.31A10.16,10.16,0,0,0,412.14,291.27Zm-10.79-1.33a4.91,4.91,0,0,1-3.19,0,.64.64,0,0,0,.53.9,4,4,0,0,0,2.14-.1A.69.69,0,0,0,401.35,289.94Z" transform="translate(-361.36 -254.21)" fill="#e60012" fill-rule="evenodd"/>
        <path d="M426.26,319.18c.1-2.68.21-5.29.3-7.9s.16-5.17.28-7.75.3-5.21.46-7.82c0-.3,0-.6,0-.9a1,1,0,0,1,.56-1,8.91,8.91,0,0,1,3.84-1.27,54.16,54.16,0,0,1,6.62-.33c2.08,0,4.17-.17,6.25-.17s4.4.08,6.59.2a45,45,0,0,1,8.25,1.2,16.34,16.34,0,0,1,4.39,1.68,13.18,13.18,0,0,1,4.12,3.92,28.53,28.53,0,0,1,4.22,9.45,57.86,57.86,0,0,1,2,12.74c0,.78.06,1.55.12,2.32a17.72,17.72,0,0,1-.54,4.53c-.15.84-.35,1.68-.55,2.52a1.55,1.55,0,0,1-1.47,1.21c-3.65.23-7.3.11-10.94.06-1.15,0-2.29.13-3.44.2-.12,0-.25,0-.37,0-2.34.05-4.67.17-7,.14-2.09,0-4.18-.24-6.28-.33-1.22-.05-2.44,0-3.67,0a.91.91,0,0,1-1-.77,17.58,17.58,0,0,0-.74-2.15c-.94-2-2.09-2.42-4-2.33s-3,1.1-3.51,3.22c-.07.33-.08.67-.16,1a2.12,2.12,0,0,1-.29.63,1.06,1.06,0,0,1-1,.48c-.34,0-.7,0-1,0a1.84,1.84,0,0,1-1.83-2.16,11.14,11.14,0,0,0,0-1.41c0-2.25,0-4.5,0-6.75C426.25,320.83,426.26,320,426.26,319.18ZM468,312.11a12.08,12.08,0,0,0,2.45-.42.94.94,0,0,0,.69-1.23,31.44,31.44,0,0,0-2-5.93,27.23,27.23,0,0,0-4.16-6.25,6.84,6.84,0,0,0-1.3-1.22,12.51,12.51,0,0,0-3.5-1.9,17,17,0,0,0-2.47-.73c-2.45-.33-4.9-.63-7.36-.84-1.86-.15-3.74-.21-5.61-.19-1.66,0-3.31.18-5,.28a.55.55,0,0,0-.41.79,1.55,1.55,0,0,0,.28.39c.45.44.91.86,1.36,1.29a17,17,0,0,1,4,6,34.61,34.61,0,0,1,2.22,8.49,1,1,0,0,0,.89.95,9,9,0,0,0,1.16.13C453.74,311.89,466.17,312.21,468,312.11Zm-30.82-.44v0c1.62,0,3.24,0,4.87,0a5.65,5.65,0,0,0,1.29-.18.56.56,0,0,0,.37-.35,1.85,1.85,0,0,0,0-.74,33.83,33.83,0,0,0-2.29-7.89,14.57,14.57,0,0,0-7.22-7.74,6.62,6.62,0,0,0-4.65-.46,1.56,1.56,0,0,0-1.28,1.38c-.21,1.55-.45,3.11-.52,4.68-.13,3.23-.15,6.46-.21,9.7a1.08,1.08,0,0,0,.95,1.24,13.15,13.15,0,0,0,1.77.21c.93.07,1.87.12,2.8.13C434.45,311.69,435.82,311.67,437.2,311.67Zm14.6,8.23a3.66,3.66,0,0,0-3.4,2.14,3.86,3.86,0,0,0,3.44,5.32c2,0,3.05-.68,3.59-2.53A3.81,3.81,0,0,0,451.8,319.9Zm17.31.76c-2.17,0-3.42,1.19-3.41,3.27a2.93,2.93,0,0,0,3,3.25,3.32,3.32,0,0,0,3.63-3.27A3.09,3.09,0,0,0,469.11,320.66Zm-34,4.1c-.31.06-.81.16-1.32.24a4.5,4.5,0,0,0-3.21,2.45.45.45,0,0,0,0,.45c.2.17.32,0,.43-.19a13,13,0,0,1,.78-1,4.41,4.41,0,0,1,2.59-1.21,4.15,4.15,0,0,1,4.11,1.53,7,7,0,0,1,1.45,3.37c0,.21.07.42.34.4s.28-.27.23-.46a14.06,14.06,0,0,0-.46-1.69,5.66,5.66,0,0,0-2.34-3.06A5.07,5.07,0,0,0,435.11,324.76Zm27.5,2.89h1.83c.26,0,.49-.08.49-.39s-.21-.41-.47-.43a3.17,3.17,0,0,0-.44,0l-7.15,0c-.47,0-.69.14-.7.44s.22.46.68.48h.3C458.31,327.74,462,327.65,462.61,327.65Zm-13.32,1.44a.9.9,0,0,0,.11,1.62,2.6,2.6,0,0,0,1.9-.06.94.94,0,0,0-.16-1.76A5.65,5.65,0,0,0,449.29,329.09Zm11.48-3.41H457a.55.55,0,0,0-.31.16s0,.2,0,.23a1,1,0,0,0,.43.15c.58,0,1.15,0,1.73,0l5.72,0c.2,0,.39,0,.4-.28s-.18-.32-.4-.32Zm-3.55-1c-.24,0-.57-.06-.57.3s.34.26.55.26h6.43c.1,0,.22,0,.29,0s.09-.58,0-.6c-.41,0-.83,0-1.24,0C461.06,324.63,457.45,324.71,457.22,324.72Zm13.44,3.76a1.07,1.07,0,0,0-1,1.08,1,1,0,0,0,1.11.92,4,4,0,0,0,.83-.19.87.87,0,0,0,.6-.93.88.88,0,0,0-.74-.79A7.89,7.89,0,0,0,470.66,328.48Zm-40.07-10.25h0c.44,0,.87,0,1.31,0a.46.46,0,0,0,.48-.48.45.45,0,0,0-.43-.48,2.28,2.28,0,0,0-.45,0l-2.09,0c-.39,0-.6.17-.6.46s.2.48.58.5Zm15.27-6.57c-.07-.61-.14-1.2-.21-1.83-.28.08-.5.13-.71.2a.22.22,0,0,0-.13.18c.05.53.11,1.05.18,1.62Zm-.63,4.53c.32,0,.55-.06.77-.11a.23.23,0,0,0,.15-.17c0-.43,0-.86,0-1.33a7.11,7.11,0,0,0-.72.14.35.35,0,0,0-.19.21C445.22,315.34,445.23,315.75,445.23,316.19Zm.69-3.78c-.27,0-.48.06-.68.11s-.17.11-.17.16c0,.44.07.88.12,1.35a4,4,0,0,0,.63-.14.36.36,0,0,0,.2-.24C446,313.25,446,312.86,445.92,312.41Zm-.68,7.59a4.8,4.8,0,0,0,.66-.09c.09,0,.24-.14.24-.22,0-.4,0-.81,0-1.23l-.84.06C445.29,319,445.27,319.49,445.24,320Zm.07-12.24c-.26.08-.48.14-.68.22s-.15.12-.14.17c.06.39.13.77.21,1.19l.85-.25C445.47,308.64,445.39,308.22,445.31,307.76Zm-1.84-3.8c.23-.11.43-.18.61-.29s.15-.18.13-.25c-.09-.34-.21-.68-.32-1-.82.25-.84.29-.6,1C443.34,303.58,443.4,303.75,443.47,304ZM445,327.6c.29,0,.5-.05.7-.09s.19-.1.2-.16c0-.34.05-.68.07-1a4.51,4.51,0,0,0-.65,0,.29.29,0,0,0-.22.19C445.05,326.85,445,327.2,445,327.6Zm.17-3.93a3.76,3.76,0,0,0,.68,0c.08,0,.22-.18.21-.26,0-.31.17-.66-.14-.93,0,0-.07,0-.11,0s-.25,0-.37,0-.28.06-.27.26S445.17,323.31,445.17,323.67ZM442.25,301l.54,1.06.78-.43-.55-1.06Zm-.47-2.52c-.72-1-.59-1.08-1.41-.43l.34.44.38.46ZM446,325.57c0-.19,0-.34,0-.48,0-.77,0-.77-.75-.68,0,0-.06,0-.1,0v1.16Zm.08-4.95c-.21,0-.37,0-.53.07s-.3.07-.31.13a2.22,2.22,0,0,0,0,.81c0,.07.35.08.54.1s.33-.08.32-.32S446.09,320.92,446.09,320.62Zm-2.13-15c.24-.1.47-.18.69-.28a.21.21,0,0,0,.09-.18c-.07-.29-.16-.58-.24-.88C443.5,304.72,443.66,304.54,444,305.65Zm-6.69-10c.17-.22.32-.43.5-.68l-1-.48c-.41.71-.41.71.24,1Zm7.1,11.66c.89-.2,1-.42.54-1.19C444,306.36,444.07,306.32,444.37,307.27Zm-5.95-12-.5.65c.7.59.9.57,1.34-.07a3.81,3.81,0,0,0-.32-.24C438.79,295.54,438.63,295.44,438.42,295.31Zm7.41,33c-.76-.11-1.05.07-1,.58a.56.56,0,0,0,.29.41.58.58,0,0,0,.48-.22A3.12,3.12,0,0,0,445.83,328.3Zm-3.13-28.36c-.16-.28-.3-.54-.46-.84l-.74.5c.16.28.3.52.44.78Zm-2.12-2.9c-.57-.71-.81-.72-1.32-.07l.61.54Zm-4.57-2.9a4.13,4.13,0,0,0-.75-.19c-.15,0-.4.15-.42.26a.62.62,0,0,0,.24.47,2.67,2.67,0,0,0,.64.23C435.82,294.65,435.9,294.42,436,294.14Zm10.12,22.7c-.9,0-.92,0-.77,1C446.27,317.72,446.31,317.67,446.13,316.84Z" transform="translate(-361.36 -254.21)" fill="#e60012" fill-rule="evenodd"/>
        <path d="M413.31,277.24a5.35,5.35,0,0,1-.72.14c-.71,0-1.42.07-2.13,0a4.76,4.76,0,0,1-1.17-.23.4.4,0,0,1-.21-.31c.26-.77.55-1.54.85-2.35a4.28,4.28,0,0,0,2.32.57,7.42,7.42,0,0,0,1.15-.17c.25-.05.45-.21.36-.5s-.31-.28-.55-.21a3.9,3.9,0,0,1-2.61-.14c-.32-.14-.44-.33-.29-.67s.27-.7.39-1.06.16-.28.4-.25c.91.1,1.81.16,2.72.23H414c.22,0,.42-.13.37-.37a.52.52,0,0,0-.35-.34c-.46-.06-.92,0-1.38-.07s-1-.08-1.6-.13c.23-.64.43-1.21.63-1.79a6.8,6.8,0,0,0,3.22.23,2.39,2.39,0,0,0,.87-.37c.1-.06.13-.34.08-.48a.47.47,0,0,0-.44-.09,4.5,4.5,0,0,1-2.32.28,7.58,7.58,0,0,1-.81-.13.31.31,0,0,1-.26-.44c.22-.62.43-1.25.65-1.92,1.19.75,2.42.46,3.64.22a1.43,1.43,0,0,0,.7-.39c.1-.09.05-.34.06-.53-.17,0-.37-.06-.51,0a4.92,4.92,0,0,1-2.88.36,2.82,2.82,0,0,1-.45-.18.36.36,0,0,1-.21-.54c.22-.55.4-1.12.61-1.72a3.89,3.89,0,0,0,2.6.22l.33-.06c.22,0,.4-.2.32-.41a.59.59,0,0,0-.44-.29c-.37,0-.74.11-1.11.15a1.37,1.37,0,0,1-1.36-.41c.16-.49.31-1,.5-1.47,0-.09.21-.16.32-.16,1-.05,2-.07,3-.11l1.53-.08Z" transform="translate(-361.36 -254.21)" fill="#e60012" fill-rule="evenodd"/>
        <path d="M406.13,261.74l-4.63,12.89c-.22-.19-.44-.07-.72.06a3,3,0,0,1-1,.23,16.61,16.61,0,0,1-1.87.06c-.54,0-.74-.35-.58-.87s.34-1,.55-1.65a.87.87,0,0,0,1,.58c.76,0,1.52-.1,2.28-.15.06,0,.14,0,.17-.05s.2-.31.29-.46c-.15-.08-.3-.23-.45-.23-.39,0-.79.15-1.18.14a12.87,12.87,0,0,1-1.39-.17L398,272c.19-.54.38-1.1.59-1.71a2,2,0,0,0,1.57.58,9,9,0,0,0,1.27,0,2.06,2.06,0,0,0,.79-.27.34.34,0,0,0-.34-.58,5,5,0,0,1-2.33.05.68.68,0,0,1-.54-1c.13-.4.27-.8.41-1.22.48,0,1,.09,1.42.09s1.07-.05,1.6-.1c.26,0,.47-.16.41-.47s-.33-.28-.57-.24a10,10,0,0,1-2.63,0c.31-1,.61-1.84.91-2.76a5.85,5.85,0,0,0,3.12.29c.25,0,.53-.12.48-.45s-.31-.3-.58-.29a18.92,18.92,0,0,1-2.13,0c-.53,0-.62-.27-.42-.77s.3-.79.47-1.18a.39.39,0,0,1,.28-.22c1.42-.06,2.85-.1,4.27-.14Z" transform="translate(-361.36 -254.21)" fill="#e60012" fill-rule="evenodd"/>
        <path d="M429.91,269.16c1.7,1.28,3.61,1.35,5.65,1.12l-.28.47a11.29,11.29,0,0,0-.69,1.15,1.53,1.53,0,0,1-1.41,1,8.49,8.49,0,0,1-3.91-.36l-.24-.09c-.46-.21-.49-.27-.28-.73Z" transform="translate(-361.36 -254.21)" fill="#e60012" fill-rule="evenodd"/>
        <path d="M431.3,266.4a10.34,10.34,0,0,0,6.27.59l-.41.69c-.31.5-.6,1-.92,1.5a.57.57,0,0,1-.33.26,8.94,8.94,0,0,1-3.75,0,7.21,7.21,0,0,1-1.41-.58c-.41-.22-.46-.47-.25-.88Z" transform="translate(-361.36 -254.21)" fill="#e60012" fill-rule="evenodd"/>
        <path d="M432.64,263.73a10.55,10.55,0,0,0,6.52.51c-.35.61-.68,1.2-1,1.78a.35.35,0,0,1-.19.12,11,11,0,0,1-5.55-.06c-.77-.24-.78-.26-.43-1C432.19,264.64,432.42,264.18,432.64,263.73Z" transform="translate(-361.36 -254.21)" fill="#e60012" fill-rule="evenodd"/>
        <path d="M433.57,273.59c-.36.62-.67,1.16-1,1.68a.52.52,0,0,1-.3.19,18.91,18.91,0,0,1-2.08.47,4.48,4.48,0,0,1-3.07-.73l1.11-2.38A8.42,8.42,0,0,0,433.57,273.59Z" transform="translate(-361.36 -254.21)" fill="#e60012" fill-rule="evenodd"/>
        <path d="M431.88,276.46c-.4.67-.8,1.37-1.22,2.06a.34.34,0,0,1-.21.14,8.57,8.57,0,0,1-3.6,0,1.26,1.26,0,0,1-1-.64l1-2.2a4.54,4.54,0,0,0,2.46.81A23.11,23.11,0,0,0,431.88,276.46Z" transform="translate(-361.36 -254.21)" fill="#e60012" fill-rule="evenodd"/>
        <path d="M424.5,281.16l1-2.23a7.45,7.45,0,0,0,4.62.55l-1.22,2.24a.2.2,0,0,1-.14.1c-.93,0-1.86.1-2.79.09a1.35,1.35,0,0,1-1.22-.61C424.71,281.24,424.61,281.22,424.5,281.16Z" transform="translate(-361.36 -254.21)" fill="#e60012" fill-rule="evenodd"/>
        <path d="M421.89,287a8.18,8.18,0,0,0,3.9.6,9,9,0,0,0-.54,1,1.21,1.21,0,0,1-1.2.87c-.62,0-1.24.06-1.86,0a1.47,1.47,0,0,1-.62-.23.61.61,0,0,1-.29-.89C421.47,287.89,421.68,287.43,421.89,287Z" transform="translate(-361.36 -254.21)" fill="#e60012" fill-rule="evenodd"/>
        <path d="M427.21,285c-.3.57-.57,1.08-.86,1.59a.41.41,0,0,1-.26.18,8,8,0,0,1-3.37-.21c-.49-.15-.52-.25-.32-.73s.39-.88.58-1.33A9.89,9.89,0,0,0,427.21,285Z" transform="translate(-361.36 -254.21)" fill="#e60012" fill-rule="evenodd"/>
        <path d="M423.32,283.75c.32-.67.6-1.27.88-1.88,1.24,1.08,2.71.86,4.23.74-.27.52-.51,1-.78,1.44a.33.33,0,0,1-.29.12c-1.09,0-2.19,0-3.28-.08A2.29,2.29,0,0,1,423.32,283.75Z" transform="translate(-361.36 -254.21)" fill="#e60012" fill-rule="evenodd"/>
        <path d="M452.05,326.49a3,3,0,0,1-2.94-3.76,2.58,2.58,0,0,1,2.44-2,2.86,2.86,0,0,1,2.84,1.69,3.11,3.11,0,0,1-.48,3.43,1.84,1.84,0,0,1-.87.47A6.38,6.38,0,0,1,452.05,326.49Zm-1.57-2.41,1.09-.07c.76,0,1.52-.07,2.28-.13.2,0,.41-.11.37-.37s-.25-.23-.44-.22l-2.25.14-1.53.1c-.2,0-.47,0-.46.31s.27.23.46.24Zm.54.87c.76-.05,1.4-.07,2-.14a.51.51,0,0,0,.37-.31c0-.26-.22-.26-.41-.24-.63,0-1.27.08-1.9.15-.13,0-.23.18-.35.28Zm.54.89a12.48,12.48,0,0,0,1.35-.3c.13,0,.2-.24.29-.37-.14-.05-.29-.17-.43-.15a9.93,9.93,0,0,0-1.21.23c-.12,0-.21.19-.31.29Zm.18-3.38a4.21,4.21,0,0,0-.71,0c-.1,0-.18.15-.28.24.09.09.18.27.28.28a13.4,13.4,0,0,0,1.42,0c.1,0,.21-.17.31-.25-.1-.11-.19-.27-.31-.3A3.36,3.36,0,0,0,451.74,322.46Zm.08-.24a2.72,2.72,0,0,0,.63-.05c.11,0,.2-.23.23-.36s-.15-.22-.23-.22q-.61,0-1.23.12c-.08,0-.22.18-.21.24a.43.43,0,0,0,.25.26A2.57,2.57,0,0,0,451.82,322.22Z" transform="translate(-361.36 -254.21)" fill="#e60012" fill-rule="evenodd"/>
        <path d="M468.73,326.28c-1.31,0-2.06-.74-2.14-2.17a2.39,2.39,0,0,1,.45-1.73,2.68,2.68,0,0,1,3-.74,2.5,2.5,0,0,1,1.36,2.4,2.45,2.45,0,0,1-2.5,2.24ZM468,324c-.11,0-.21.16-.31.24.09.1.19.28.28.28.79,0,1.57,0,2.36-.06.09,0,.21-.19.23-.31s-.17-.2-.28-.22S468.5,323.94,468,324Zm1.07-.48v0c.42,0,.85-.05,1.26-.11.11,0,.23-.18.27-.29s-.16-.25-.25-.25c-.76,0-1.52,0-2.28.11-.1,0-.19.18-.29.27.11.08.2.23.32.24C468.38,323.5,468.7,323.48,469,323.48Zm0-1.35v0a1.18,1.18,0,0,0-.37,0,1.54,1.54,0,0,0-.31.21c.08.1.15.28.25.3a7.17,7.17,0,0,0,1,.07.33.33,0,0,0,.24-.22.36.36,0,0,0-.19-.26A4.78,4.78,0,0,0,469,322.13Zm-.31,3.58a7.32,7.32,0,0,0,.93-.24c.09,0,.11-.24.16-.36-.11-.05-.23-.14-.34-.13a3,3,0,0,0-.73.14c-.13.05-.23.2-.35.3Z" transform="translate(-361.36 -254.21)" fill="#e60012" fill-rule="evenodd"/>
      </g>
      <g>
        <path d="M390.91,312.52c-.5,0-1,0-1.5.07l-.26,0c-1,.06-1.29-.14-1.32-1.14-.06-2.65-.09-5.29-.11-7.94,0-1,0-2,0-3a.79.79,0,0,1,.84-.91c2.42-.1,4.84-.18,7.26-.29,1.21-.05,2.42-.16,3.63-.25.49,0,1-.08,1.49-.09s.83.18.85.77c0,.8.07,1.6,0,2.4-.08,2.48-.2,5-.29,7.45,0,.68,0,1.37,0,2.06,0,.52-.15.67-.66.7C398.79,312.46,392.15,312.51,390.91,312.52ZM400.49,300a.85.85,0,0,0-.15,0l-4.78.32c-.25,0-.28.19-.28.4l0,2.17c0,.86,0,.86.84.89l.19,0,3.82,0c.17,0,.33,0,.33-.24Zm-11.63.42c0,1,0,1.95,0,2.87,0,.07.2.19.31.19,1.55.07,3.09.13,4.64.18h.42c0-1,0-2,0-2.93,0-.27-.13-.32-.37-.32h-5Zm.1,4.47c0,1,0,1.95,0,2.91,0,.07.12.16.2.21a.54.54,0,0,0,.22,0l4.75-.11a.11.11,0,0,0,.07,0v-3Zm3,6.79h2.1c.26,0,.34-.1.33-.36,0-.57,0-1.15-.07-1.72-.09-1,.15-.89-.93-.91-1.39,0-2.79,0-4.19.05-.27,0-.26.17-.25.35,0,.76,0,1.52,0,2.28,0,.25.09.33.33.32Zm3.32-5.28h0c0,.41,0,.82,0,1.23s.1.38.38.36l2.42-.16c.66-.05,1.32-.1,2-.13.29,0,.41-.13.4-.44,0-.7,0-1.39,0-2.09,0-.2,0-.33-.28-.33-1.52,0-3,0-4.57,0-.24,0-.29.11-.29.32C395.3,305.57,395.3,306,395.3,306.4Zm0,5.18.37,0,4.33-.12a.46.46,0,0,0,.48-.51c0-.83,0-1.66,0-2.46l-.17-.05c-1.58.1-3.15.21-4.73.3-.27,0-.31.13-.31.35C395.27,309.92,395.27,310.73,395.27,311.58Z" transform="translate(-361.36 -254.21)" fill="#00205c" fill-rule="evenodd"/>
        <path d="M397.48,330.8a11.43,11.43,0,0,1,0,1.31,5.36,5.36,0,0,1-2.55,4,3.61,3.61,0,0,1-5.06-1.75,8.58,8.58,0,0,1-.31-5.61,8,8,0,0,1,1.47-2.5c1.32-1.59,4.23-1.1,5.19.14a5.71,5.71,0,0,1,1.28,3.36c0,.35,0,.7,0,1.05Zm-5.72,0c0,.36.05.72.11,1.08a4.27,4.27,0,0,0,.77,2,.82.82,0,0,0,1.16.24,3,3,0,0,0,1.26-1.35,5.19,5.19,0,0,0,0-3.8,1.84,1.84,0,0,0-1.47-1.2,1,1,0,0,0-1.14.49A4.71,4.71,0,0,0,391.76,330.76Zm-2.11.29a10.23,10.23,0,0,0,.18,1.06c0,.11.22.18.33.27.08-.13.22-.25.22-.37a9.84,9.84,0,0,0-.15-1.33c0-.11-.18-.27-.25-.26a.57.57,0,0,0-.3.26C389.63,330.75,389.66,330.87,389.65,331.05Zm.9.09a2.93,2.93,0,0,0,.07.48,2.17,2.17,0,0,0,.3.61c0,.06.22.07.3,0a.29.29,0,0,0,.13-.27,9.58,9.58,0,0,0-.22-1.19.39.39,0,0,0-.28-.22c-.1,0-.21.14-.27.24A1.06,1.06,0,0,0,390.55,331.14Zm5.56-.66c0,.19,0,.46.1.71a.33.33,0,0,0,.25.2c.11,0,.27-.15.27-.23a9.22,9.22,0,0,0-.1-1.29.33.33,0,0,0-.26-.2.46.46,0,0,0-.25.26A2.41,2.41,0,0,0,396.11,330.48ZM395.8,333c-.3,0-.89.76-.78,1a.25.25,0,0,0,.45.1,3.36,3.36,0,0,0,.51-.68A.26.26,0,0,0,395.8,333Z" transform="translate(-361.36 -254.21)" fill="#00205c" fill-rule="evenodd"/>
        <path d="M439,332.05a17.1,17.1,0,0,1-.47,2.49,3.7,3.7,0,0,1-3.1,2.69,3.9,3.9,0,0,1-.74.11,2.63,2.63,0,0,1-1.13-.15,4.3,4.3,0,0,1-2.44-2.68,10.14,10.14,0,0,1-.5-4,5.1,5.1,0,0,1,1.49-3.08,3.17,3.17,0,0,1,2.45-.8c1.75.06,2.7,1.24,3.53,2.52A5.25,5.25,0,0,1,439,332.05Zm-6.6-3.13a.37.37,0,0,1,0,.11c-.08.24-.34.52,0,.69s.42-.21.53-.42.4-.44.1-.65-.44.14-.63.29l-.12-.48c-.17.08-.4.12-.48.25a3.52,3.52,0,0,0-.36.93c0,.14.09.31.14.47.14-.1.31-.17.39-.3A9.2,9.2,0,0,0,432.43,328.92Zm.5,2.7a8.73,8.73,0,0,0,.47,2.95.87.87,0,0,0,1.08.64,1.4,1.4,0,0,0,.53-.15,2.06,2.06,0,0,0,1.14-1.32,6.35,6.35,0,0,0,.19-3.32,1.93,1.93,0,0,0-1.69-1.43c-.68,0-1.24.41-1.49,1.28A9.74,9.74,0,0,0,432.93,331.62Zm5.25,2c-.09-.09-.19-.27-.28-.26a.5.5,0,0,0-.33.25c-.14.41-.21.85-.34,1.26-.06.19-.17.39.08.46a.53.53,0,0,0,.46-.22C437.94,334.67,438,334.18,438.18,333.64Zm-7-1.53a1.89,1.89,0,0,0,.1.56.45.45,0,0,0,.37.2.38.38,0,0,0,.23-.31,4.91,4.91,0,0,0-.14-1,.39.39,0,0,0-.28-.23c-.07,0-.21.12-.24.22A2.21,2.21,0,0,0,431.19,332.11Zm6.25,1.7-.3-.34a1.74,1.74,0,0,0-.34.32.88.88,0,0,0-.1.43c0,.12,0,.32.09.34a.43.43,0,0,0,.39-.07A3.23,3.23,0,0,0,437.44,333.81Z" transform="translate(-361.36 -254.21)" fill="#00205c" fill-rule="evenodd"/>
        <path d="M441.37,309.54a2.57,2.57,0,0,1-2.27.46,2.46,2.46,0,0,1-1.89-1.74,2.69,2.69,0,0,1,1.37-2.87,2.26,2.26,0,0,1,2.81.45,2.39,2.39,0,0,1,.67,2.94.39.39,0,0,0,.08.34c.51.56,1.05,1.11,1.57,1.66a1.63,1.63,0,0,1,.17.2.42.42,0,0,1,0,.61.41.41,0,0,1-.6-.07l-1-1C442,310.2,441.69,309.88,441.37,309.54Z" transform="translate(-361.36 -254.21)" fill="#00205c" fill-rule="evenodd"/>
        <path d="M463.25,335.65c-2.1,0-3.13-.75-3.64-2.37a9.86,9.86,0,0,1-.33-1.72c-.06-.49.11-.66.61-.68a5.2,5.2,0,0,1,.95.1,1.69,1.69,0,0,0,.32,0c.52,0,.72.18.75.69a6.24,6.24,0,0,0,.2,1.43,1.13,1.13,0,0,0,2.07.43,3.85,3.85,0,0,0,.56-1.31c.14-.46.29-.7.75-.68a6,6,0,0,1,1.44.32c.1,0,.2.27.19.4a2,2,0,0,1-.19.79A4.14,4.14,0,0,1,463.25,335.65ZM461,333.17a2.7,2.7,0,0,0-.3-.52,1.53,1.53,0,0,0-.38-.27c-.05.15-.17.3-.15.44a1.12,1.12,0,0,0,.22.58c.11.13.35.29.49.26s.16-.31.11-.5a3.16,3.16,0,0,0,.46.16s.17-.17.15-.22a2.46,2.46,0,0,0-.34-.56s-.28,0-.28,0a3.51,3.51,0,0,0,0,.56Zm4.78-.23c-.23-.09-.42-.24-.5-.19a.57.57,0,0,0-.28.43c0,.15.17.3.3.5-.05.11-.25.33.05.49s.39-.09.51-.28a4.63,4.63,0,0,0,.39-.59.39.39,0,0,0,0-.33.46.46,0,0,0-.32-.1A.35.35,0,0,0,465.78,332.94Z" transform="translate(-361.36 -254.21)" fill="#00205c" fill-rule="evenodd"/>
        <path d="M473.82,308.68l-.86,1.85-.15.35c-.09.21-.24.33-.47.25s-.26-.29-.17-.5c.16-.42.34-.84.51-1.25.08-.18.18-.36.27-.54a2.55,2.55,0,0,0,.31-1.74,2.37,2.37,0,0,1,.6-2.19,1.4,1.4,0,0,1,2.41.34,4.12,4.12,0,0,1,.08,3.32,1.25,1.25,0,0,1-2.21.44C474.05,308.93,474,308.83,473.82,308.68Z" transform="translate(-361.36 -254.21)" fill="#00205c" fill-rule="evenodd"/>
        <path d="M412.82,331.24c.81,0,.81,0,.86.81a.69.69,0,0,0,0,.25c0,.08.13.18.2.18a.31.31,0,0,0,.21-.16,2,2,0,0,0,.1-.44.71.71,0,0,1,1-.64,3.23,3.23,0,0,0,.44,0,.69.69,0,0,1,.73.66,2.09,2.09,0,0,1-1.09,2.13,4.19,4.19,0,0,0-.42.24,2,2,0,0,1-2.89-1,9.91,9.91,0,0,1-.39-1.28c-.08-.55,0-.64.56-.71A5,5,0,0,1,412.82,331.24Z" transform="translate(-361.36 -254.21)" fill="#00205c" fill-rule="evenodd"/>
        <path d="M375.21,335.25l-10.15.17c-.23,0-.59.11-.59-.26s.37-.28.6-.29c5-.05,10-.12,15-.15,1.83,0,3.67.08,5.51.14.15,0,.41.13.42.22,0,.28-.23.27-.43.27l-8.4-.09h-2Z" transform="translate(-361.36 -254.21)" fill="#00205c" fill-rule="evenodd"/>
        <path d="M449.57,335.92l-7-.12c-.44,0-.87-.05-1.31-.07-.2,0-.42,0-.37-.29a.47.47,0,0,1,.39-.22c1.59,0,3.19.06,4.79.09l8.73.14,2.55.08c.07,0,.17,0,.21,0a2.09,2.09,0,0,1,.24.28c-.09.07-.19.18-.28.18-.64,0-1.28,0-1.91,0h-6Z" transform="translate(-361.36 -254.21)" fill="#00205c" fill-rule="evenodd"/>
        <path d="M453.57,310.87a3.68,3.68,0,0,1,.58.07c.8.22,1.59.45,2.39.7.1,0,.16.18.24.28a2.52,2.52,0,0,1-.33.24.31.31,0,0,1-.25,0,8.41,8.41,0,0,0-2.78-.77,6.86,6.86,0,0,0-3.25.14,1.2,1.2,0,0,1-.66-.11c-.1,0-.23-.22-.21-.29a.52.52,0,0,1,.3-.28c.4-.12.8-.2,1.2-.3l4.06-1a.67.67,0,0,1,.44,0,2.21,2.21,0,0,1,.45.37c-.13.13-.24.33-.39.38-.47.17-1,.28-1.44.41l-.35.11Z" transform="translate(-361.36 -254.21)" fill="#00205c" fill-rule="evenodd"/>
        <path d="M449.91,334.11h5.5a3.63,3.63,0,0,1,.67.06c.11,0,.2.15.29.23-.1.08-.2.23-.31.24-.32,0-.65,0-1,0l-10.89-.16c-.09,0-.2,0-.26,0a2.62,2.62,0,0,1-.3-.28,1.11,1.11,0,0,1,.33-.25.76.76,0,0,1,.37,0l5.57.13Z" transform="translate(-361.36 -254.21)" fill="#00205c" fill-rule="evenodd"/>
        <path d="M463.45,311.09c.46.23.84.4,1.19.6a.76.76,0,0,1,.33.36c.09.22-.1.4-.33.33a3.38,3.38,0,0,1-.51-.24c-.49-.28-1-.57-1.48-.83a.68.68,0,0,0-.4-.05,4.4,4.4,0,0,0-1.76.54.35.35,0,0,1-.33-.07c-.22-.34-.17-.64.13-.76a8.3,8.3,0,0,1,1.07-.34c1.57-.33,3.14-.65,4.72-.95.13,0,.3.12.44.18-.08.13-.14.32-.26.37A7.6,7.6,0,0,1,464,311C463.85,311,463.71,311,463.45,311.09Z" transform="translate(-361.36 -254.21)" fill="#00205c" fill-rule="evenodd"/>
        <path d="M408.72,335.14a1.2,1.2,0,0,1,.38,0,1.23,1.23,0,0,1,.25.22c-.08.08-.14.19-.24.24a.69.69,0,0,1-.29,0l-8.76,0c-.23,0-.59.07-.59-.28s.37-.29.61-.29C401.54,335.07,407.3,335.14,408.72,335.14Z" transform="translate(-361.36 -254.21)" fill="#00205c" fill-rule="evenodd"/>
        <path d="M418.92,335.7c-.23,0-.58.08-.58-.3s.35-.25.56-.25l9,.15c.06,0,.14,0,.19,0a4.19,4.19,0,0,1,.34.28c-.12.07-.25.2-.37.2C426.54,335.81,420.43,335.71,418.92,335.7Z" transform="translate(-361.36 -254.21)" fill="#00205c" fill-rule="evenodd"/>
        <path d="M375.45,326c.19,0,.44,0,.41.24,0,.1-.27.25-.42.25-1.46,0-2.92,0-4.38,0l-4-.05a.59.59,0,0,1-.3,0,.34.34,0,0,1-.17-.24.31.31,0,0,1,.19-.23,1.07,1.07,0,0,1,.4,0C368.52,325.9,374.06,326,375.45,326Z" transform="translate(-361.36 -254.21)" fill="#00205c" fill-rule="evenodd"/>
        <path d="M374.32,328.39h.6c.19,0,.45,0,.46.25s-.27.27-.48.27l-1.61.06-6.51.32s-.11,0-.15,0-.17-.46-.05-.51a1.51,1.51,0,0,1,.48-.07Z" transform="translate(-361.36 -254.21)" fill="#00205c" fill-rule="evenodd"/>
        <path d="M367.74,324.11c-.06,0-.13,0-.18,0s-.15-.49,0-.51a7.17,7.17,0,0,1,1-.08l6.77-.13a2.47,2.47,0,0,1,.67,0c.12,0,.08.45,0,.46-.39,0-.79,0-1.19,0C373.77,323.94,369.08,324.11,367.74,324.11Z" transform="translate(-361.36 -254.21)" fill="#00205c" fill-rule="evenodd"/>
        <path d="M423.63,334.16h-3.48c-.19,0-.42,0-.43-.24s.22-.29.42-.29q3.54,0,7.08,0c.12,0,.24.17.37.27-.14.07-.27.21-.41.21-1.18,0-2.37,0-3.55,0Z" transform="translate(-361.36 -254.21)" fill="#00205c" fill-rule="evenodd"/>
        <path d="M401.05,334.08c-.08,0-.17,0-.22,0a3.46,3.46,0,0,1-.31-.22c.09-.1.17-.26.28-.28a3.64,3.64,0,0,1,.81-.07c2,0,3.95,0,5.93-.06.22,0,.59-.1.59.25s-.38.23-.6.23C406.45,334,402.13,334.08,401.05,334.08Z" transform="translate(-361.36 -254.21)" fill="#00205c" fill-rule="evenodd"/>
        <path d="M368.68,333.17c-.22,0-.48,0-.46-.29,0-.1.28-.27.44-.27l6.48-.09c.06,0,.14,0,.18,0s.09.48,0,.49C375,333.05,369.75,333.16,368.68,333.17Z" transform="translate(-361.36 -254.21)" fill="#00205c" fill-rule="evenodd"/>
        <path d="M368.38,330.94c-.13,0-.14-.5,0-.51,1.88,0,3.76-.06,5.65-.07.13,0,.13.48,0,.48C373.08,330.86,369.31,331,368.38,330.94Z" transform="translate(-361.36 -254.21)" fill="#00205c" fill-rule="evenodd"/>
        <path d="M464.56,331.68a12.11,12.11,0,0,1-.77,1.48.78.78,0,0,1-1.36-.22,6.87,6.87,0,0,1-.2-1.51c0-.08.16-.17.25-.26.08.09.21.18.23.28.05.33,0,.68.11,1s.2.31.31.46c.15-.12.36-.2.43-.34.16-.32.23-.68.38-1,.06-.12.22-.19.33-.28Z" transform="translate(-361.36 -254.21)" fill="#00205c" fill-rule="evenodd"/>
        <path d="M394.79,331.3a2.44,2.44,0,0,1-.36,1.64,1,1,0,0,1-1,.47.86.86,0,0,1-.7-.7,7.46,7.46,0,0,1-.28-3.54c.09-.55.29-.76.72-.83a1.1,1.1,0,0,1,1.19.6,13.16,13.16,0,0,1,.45,1.8A2.6,2.6,0,0,1,394.79,331.3Zm-.42,0c-.14-.69-.25-1.31-.39-1.92a.63.63,0,0,0-.68-.54c-.35,0-.33.4-.37.65a6.56,6.56,0,0,0,.29,3,.59.59,0,0,0,.34.38.55.55,0,0,0,.42-.29A13,13,0,0,0,394.37,331.31Z" transform="translate(-361.36 -254.21)" fill="#00205c" fill-rule="evenodd"/>
        <path d="M435.73,332.09a3.1,3.1,0,0,1-.29,1.82.82.82,0,0,1-.75.53.73.73,0,0,1-.68-.56,5.43,5.43,0,0,1-.24-3,1.4,1.4,0,0,1,.28-.73.78.78,0,0,1,1.24.15,3.58,3.58,0,0,1,.42,1.09A2.79,2.79,0,0,1,435.73,332.09Zm-.41.06-.1,0a3,3,0,0,0,0-.67,3.27,3.27,0,0,0-.39-.9c-.13-.19-.36-.2-.44.1a4.94,4.94,0,0,0,.13,3c0,.09.14.16.21.24.08-.08.21-.15.23-.25C435.09,333.12,435.2,332.63,435.32,332.15Z" transform="translate(-361.36 -254.21)" fill="#00205c" fill-rule="evenodd"/>
      </g>
    </g>
    <g id="smallfont">
      <g>
        <path d="M401.45,317c0-.26-.19-.13-.23-.08a.92.92,0,0,1-.65.34c0-.27,0-.86,0-1a.26.26,0,0,0-.25-.27.26.26,0,0,0-.26.25c0,.49-.06.24,0,.53a1.68,1.68,0,0,1-.08.54c-.24.13-.33.09-.44,0v-.37c0-.1.08-.18.08-.36s-.06-.2-.22-.2-.25.18-.32.38a3.89,3.89,0,0,0-.19.67c0,.27.09.14.19.3-.07.08-.23.21-.34.2s-.17-.15-.34-.15-.38.24-.29.39.69.49.79.68a3.16,3.16,0,0,1,0,.75c0,.24.39.22.42.07a4.86,4.86,0,0,0,0-.56,1.59,1.59,0,0,0,.73.15v.07a2.33,2.33,0,0,1-.32,0c-.18,0-.27.13-.09.23a1,1,0,0,0,.4.05c.05.05,0,.15,0,.33s-.2,0-.51-.08-.34.32-.15.36a2.48,2.48,0,0,0,.94,0,1,1,0,0,0,.67-.43c.16-.21-.19-.24-.27-.16a2.05,2.05,0,0,1-.36.24c-.12.06-.11,0-.1-.09s0-.16,0-.26c.32,0,.56-.15.52-.26s-.25,0-.4,0-.09-.06,0-.08.36-.06.51-.23,0-.36-.11-.32a1.59,1.59,0,0,1-.42.08c-.05,0-.11-.06,0-.08a1.36,1.36,0,0,0,.66-.22.18.18,0,0,0,.11-.24c0-.1-.3,0-.45,0,.12-.15,0-.4-.05-.47a1.63,1.63,0,0,0,.62-.15A.6.6,0,0,0,401.45,317Zm-1.61,1.87h-.49c-.08,0-.06,0-.06-.06v-.09H400C400,318.81,399.91,318.82,399.84,318.86Zm.12-.58s-.13.06-.2.06h-.3c-.09,0-.13,0-.13-.13s.11-.14.16-.18a1.67,1.67,0,0,0,.37-.32s.1,0,.1.06a.57.57,0,0,0-.11.3C399.85,318.16,400,318.25,400,318.28Z" transform="translate(-361.36 -254.21)" fill="#00205c"/>
        <path d="M403.1,319.32c.28-.09.39,0,.59-.17s.1-.13.07-.19a.35.35,0,0,0-.28-.11,1.82,1.82,0,0,1-.45,0s-.12,0-.09-.05a1.93,1.93,0,0,0,.11-.66.15.15,0,0,0-.2-.06.43.43,0,0,0-.15.26c0,.08-.1.29-.11.35s-.06.05-.11,0a.46.46,0,0,1-.17-.29c0-.08,0-.24,0-.35a1.54,1.54,0,0,1,.48-.08.78.78,0,0,0,.43-.2c.13-.1.08-.17,0-.24s-.2,0-.37,0a3.24,3.24,0,0,1-.4.1.43.43,0,0,0-.09-.4c-.06-.08-.17,0-.26,0a.92.92,0,0,0-.23.5l-.57.27c-.09,0-.09.16,0,.16a4.38,4.38,0,0,1,.5-.05c0,1,0,.76.54,1.22a.87.87,0,0,0-.13.35c0,.07,0,.18.09.18s.24-.19.29-.27a.61.61,0,0,0,.16-.31C402.87,319.27,403,319.36,403.1,319.32Z" transform="translate(-361.36 -254.21)" fill="#00205c"/>
        <path d="M405.18,318.25a1.47,1.47,0,0,0-.31,0c-.07,0-.11-.09-.11-.13v-.21a.11.11,0,0,1,.07-.09,1.37,1.37,0,0,0,.29,0c.19,0,.38-.11.39-.25s-.2-.13-.38-.13a.87.87,0,0,0-.24,0c-.1,0-.07-.08-.08-.14a1,1,0,0,0,.32-.05.73.73,0,0,0,.33-.23.11.11,0,0,0,0-.19,2.84,2.84,0,0,0-.42.08c-.11,0-.1-.05-.09-.11a2.46,2.46,0,0,1,.07-.33c0-.07,0-.1.11-.1a2.26,2.26,0,0,0,.33,0s.19-.15,0-.26a2.56,2.56,0,0,0-.93,0c-.21,0-.5,0-.69,0s-.27.06-.25.37,0,1.45,0,1.67c0,.44,0,.64.92.56a.47.47,0,0,1,.57.33,3.31,3.31,0,0,1,.11.6c0,.19.06.24.16.24s.12-.16.13-.25C405.58,319.41,405.43,318.38,405.18,318.25Zm-.72,0c-.09,0-.21.06-.26-.06s-.1-.23,0-.29a.93.93,0,0,1,.24,0C404.47,318,404.47,318.17,404.46,318.24Zm0-.71c-.1,0-.25.11-.32,0s0-.19.05-.21a1.05,1.05,0,0,1,.37,0C404.57,317.4,404.58,317.53,404.47,317.53Zm.13-.69c0,.07,0,.11-.14.12s-.25,0-.32,0,0-.33,0-.44,0-.09.12-.11l.29,0c.07,0,.09,0,.09.11A2.39,2.39,0,0,1,404.6,316.84Z" transform="translate(-361.36 -254.21)" fill="#00205c"/>
        <path d="M404.86,319h-.11c-.06,0,0,.06-.07.15s0,.11.14.12.13-.05.13-.14S404.91,319,404.86,319Z" transform="translate(-361.36 -254.21)" fill="#00205c"/>
        <path d="M404.73,319.47c0-.07,0-.09-.12-.09a.11.11,0,0,0-.12.08,2.68,2.68,0,0,0,0,.44c0,.1.06,0,.09.15s.21,0,.27,0a.25.25,0,0,0,0-.21Z" transform="translate(-361.36 -254.21)" fill="#00205c"/>
        <path d="M404.36,319.4h-.13a.28.28,0,0,0-.16.19c-.05.15-.09.17-.1.26s-.11.2-.11.32,0,.16.12.16a.33.33,0,0,0,.24-.18,2,2,0,0,0,.17-.64C404.41,319.43,404.4,319.4,404.36,319.4Z" transform="translate(-361.36 -254.21)" fill="#00205c"/>
        <path d="M404,319s-.14-.06-.2,0a5.35,5.35,0,0,0-.34.56l-.35.66c-.11.21-.2.16-.21.41s.15.07.23.13.21,0,.27-.14.29-.76.35-.93.22-.46.23-.49A.35.35,0,0,0,404,319Z" transform="translate(-361.36 -254.21)" fill="#00205c"/>
        <path d="M408,319.08c0-.1,0-.13-.14-.14s-.11,0-.59,0c0-.22,0-.2.05-.34s0-.23,0-.29,0-.17-.12-.18-.17.11-.19.21a1.37,1.37,0,0,1-.07.29c0,.1-.06.18-.08.17s-.24-.2-.24-.53a.14.14,0,0,1,.12-.16,3.25,3.25,0,0,1,.45-.08.21.21,0,0,0,.15-.08c.16,0,.18,0,.22-.16s0-.11-.24-.12a3.88,3.88,0,0,0-.62.11,2.72,2.72,0,0,0,0-.3c0-.11-.13-.11-.25-.09s-.2.28-.23.41,0,.14-.12.15a.91.91,0,0,0-.43.19c-.11.09-.1.15,0,.18s.2,0,.48,0c0,.13.06.34.1.49.08.33.08.36.45.61,0,.1-.07.12-.09.26s.19.22.25.16a4.76,4.76,0,0,0,.31-.52,3.68,3.68,0,0,0,.59-.06C407.93,319.24,408,319.19,408,319.08Z" transform="translate(-361.36 -254.21)" fill="#00205c"/>
        <path d="M409.05,318.27c-.1,0-.12,0-.12-.11s0-.15,0-.2a.1.1,0,0,1,.09-.09h.31c.08,0,.35-.07.35-.24s-.23-.08-.38-.06a.67.67,0,0,1-.33,0v-.14l.31,0c.16,0,.21-.1.28-.21s0-.16-.14-.16a1.17,1.17,0,0,0-.32,0c-.07,0-.1-.05-.09-.11a2,2,0,0,0,0-.29c0-.07,0-.1.08-.1h.27a.31.31,0,0,0,.27-.17.13.13,0,0,0-.12-.17c-.16,0-.6.1-.92.1s-.52,0-.63.05-.26.13-.22.2a1.27,1.27,0,0,1,.07.21c0,.12.08,1.22.08,1.38a1.41,1.41,0,0,0,.12.55c.07.18.33,0,.45.08s.26,0,.35,0,.33.05.39.16a1.65,1.65,0,0,1,.16.57.56.56,0,0,0,.1.37c.11.11.18,0,.22-.21a3,3,0,0,0-.16-1C409.46,318.26,409.35,318.31,409.05,318.27Zm-.36-.23c0,.09,0,.16,0,.2s0,.06-.1.06-.22-.09-.21-.2.17-.11.25-.15S408.7,318,408.69,318Zm0-.4c-.22,0-.16,0-.27,0s-.06-.05-.06-.09,0-.17.12-.17a.75.75,0,0,0,.2,0s.1,0,.1.06S408.76,317.65,408.67,317.64Zm.14-1s0,.36,0,.41a.89.89,0,0,1-.45,0,2,2,0,0,1,0-.44.17.17,0,0,1,.16-.11h.23C408.81,316.54,408.82,316.61,408.81,316.66Z" transform="translate(-361.36 -254.21)" fill="#00205c"/>
        <path d="M409,319.06c-.06,0-.1,0-.1.1s0,.14.1.15.14-.07.14-.12S409.16,319.13,409,319.06Z" transform="translate(-361.36 -254.21)" fill="#00205c"/>
        <path d="M408.81,319.39c-.05,0-.07,0-.07.08a3.7,3.7,0,0,0,0,.46c0,.11.09.09.22.08s.11-.13.1-.3A.36.36,0,0,0,408.81,319.39Z" transform="translate(-361.36 -254.21)" fill="#00205c"/>
        <path d="M408.49,319.4c-.07,0-.18.3-.22.42s-.09.21-.1.3,0,.15.07.15.19,0,.32-.38a1,1,0,0,0,.06-.45C408.62,319.38,408.52,319.39,408.49,319.4Z" transform="translate(-361.36 -254.21)" fill="#00205c"/>
        <path d="M408.29,319.12c0-.15-.13-.13-.2,0s-.31.58-.4.77a5.22,5.22,0,0,1-.36.64c-.06.07-.09.18,0,.2s.09.07.2.08a.23.23,0,0,0,.26-.15,1.87,1.87,0,0,0,.16-.49,8,8,0,0,1,.25-.78A.72.72,0,0,0,408.29,319.12Z" transform="translate(-361.36 -254.21)" fill="#00205c"/>
        <path d="M414.14,319.41a3.2,3.2,0,0,1-.78-.52h.74a.16.16,0,0,0,.11-.05.15.15,0,0,0-.11-.26h-.56v-1.29h.5a.14.14,0,0,0,.14-.14.14.14,0,0,0,0-.11.18.18,0,0,0-.1,0h-.5a.38.38,0,0,0-.05-.24.17.17,0,0,0-.24,0s0,.11,0,.24h-1.6a.38.38,0,0,0-.05-.24.17.17,0,0,0-.24,0s0,.11,0,.24h-.49a.12.12,0,0,0-.1.05.11.11,0,0,0,0,.1.13.13,0,0,0,0,.1.12.12,0,0,0,.1,0h.49v1.29h-.56a.17.17,0,0,0-.12.05.18.18,0,0,0,0,.1.16.16,0,0,0,0,.11.22.22,0,0,0,.12.05h.68a3.1,3.1,0,0,1-.74.52.19.19,0,0,0-.1.1.15.15,0,0,0,0,.13.2.2,0,0,0,.09.09c.11,0,.32-.08.65-.33a4.07,4.07,0,0,0,.52-.51H413a3.26,3.26,0,0,0,1,.83.22.22,0,0,0,.14,0,.19.19,0,0,0,.11-.09.29.29,0,0,0,0-.13A.17.17,0,0,0,414.14,319.41Zm-.93-.83h-1.6v-.23h1.6Zm0-.5h-1.6v-.27h1.6Zm0-.55h-1.6v-.24h1.6Z" transform="translate(-361.36 -254.21)" fill="#00205c"/>
        <path d="M414,320h-1.4v-.39h.73a.12.12,0,0,0,.1,0,.22.22,0,0,0,.05-.11.14.14,0,0,0-.05-.11.12.12,0,0,0-.1,0h-.73a.55.55,0,0,0-.05-.31.17.17,0,0,0-.24,0s0,.13,0,.31h-.73a.15.15,0,0,0-.11,0,.21.21,0,0,0,0,.11.14.14,0,0,0,.15.15h.73V320h-1.29a.21.21,0,0,0-.12,0,.21.21,0,0,0,0,.11.14.14,0,0,0,0,.11.16.16,0,0,0,.12,0h3a.12.12,0,0,0,.11,0,.17.17,0,0,0,0-.22A.12.12,0,0,0,414,320Z" transform="translate(-361.36 -254.21)" fill="#00205c"/>
        <path d="M418.08,317.7a4.4,4.4,0,0,1-1.55-.92.33.33,0,0,0-.18-.07.26.26,0,0,0-.21.1,4.28,4.28,0,0,1-.66.51,4.67,4.67,0,0,1-.87.43.18.18,0,0,0-.12.1.22.22,0,0,0,0,.16.35.35,0,0,0,.1.11.22.22,0,0,0,.16,0l.45-.21a.12.12,0,0,0,0,.09.17.17,0,0,0,.17.17h.85v.43h-1.45a.17.17,0,0,0-.12.29.13.13,0,0,0,.12.05h1.45v1h-.64a.18.18,0,0,0,.08-.09.23.23,0,0,0,0-.14,4.52,4.52,0,0,0-.33-.63.23.23,0,0,0-.12-.08.13.13,0,0,0-.12,0,.17.17,0,0,0-.08.11.23.23,0,0,0,0,.14,3.14,3.14,0,0,1,.29.56.39.39,0,0,0,.08.1h-.59a.21.21,0,0,0-.13.05.2.2,0,0,0,0,.24.19.19,0,0,0,.13.05h3.13a.17.17,0,0,0,.12-.05.19.19,0,0,0,0-.12.2.2,0,0,0,0-.13.21.21,0,0,0-.12,0h-.55a2.72,2.72,0,0,0,.35-.81v0a.2.2,0,0,0-.09-.09.19.19,0,0,0-.13,0,.18.18,0,0,0-.09.1c0,.06-.08.18-.17.37s-.16.31-.24.44h-.46v-1H418a.17.17,0,0,0,.12-.05.17.17,0,0,0,0-.24.22.22,0,0,0-.12,0h-1.43v-.43h.88a.17.17,0,0,0,.12-.05.17.17,0,0,0,0-.23c.3.15.48.21.55.18s.08-.05.11-.11a.38.38,0,0,0,0-.15A.19.19,0,0,0,418.08,317.7Zm-.67.13h-2.08c.45-.3.69-.47.71-.49a1,1,0,0,1,.3-.22.21.21,0,0,1,.12.05,5.21,5.21,0,0,0,1,.66Z" transform="translate(-361.36 -254.21)" fill="#00205c"/>
        <path d="M421.57,317.75H419a.17.17,0,0,0-.14.06.2.2,0,0,0-.06.14v.61a.27.27,0,0,0,.06.17.17.17,0,0,0,.14.06h2.6a.27.27,0,0,0,.16-.06.23.23,0,0,0,.07-.17V318a.18.18,0,0,0-.06-.14A.25.25,0,0,0,421.57,317.75Zm-1.41.77h-.43a.14.14,0,0,0,.08-.09c0-.07,0-.18-.13-.31a.14.14,0,0,0-.11-.06.11.11,0,0,0-.11,0,.12.12,0,0,0-.06.1.19.19,0,0,0,0,.12l.08.12a.18.18,0,0,0,.09.1h-.42a.12.12,0,0,1-.09,0,.11.11,0,0,1,0-.08v-.27a.1.1,0,0,1,0-.09l.09,0h1Zm1.34-.11a.11.11,0,0,1,0,.08.1.1,0,0,1-.08,0H421a1.93,1.93,0,0,0,.13-.24.16.16,0,0,0,0-.13s0-.06-.09-.08a.14.14,0,0,0-.11,0,.2.2,0,0,0-.09.09,2.69,2.69,0,0,1-.22.36h-.21V318h.93a.12.12,0,0,1,.09,0,.19.19,0,0,1,0,.08Z" transform="translate(-361.36 -254.21)" fill="#00205c"/>
        <path d="M421.38,319h-2.21a.21.21,0,0,0-.16.07.24.24,0,0,0-.05.14v.9a.2.2,0,0,0,.06.18.21.21,0,0,0,.15.07h2.21a.28.28,0,0,0,.17-.07.29.29,0,0,0,.07-.18v-.9a.2.2,0,0,0-.06-.14A.24.24,0,0,0,421.38,319Zm-.09,1,0,.08a.12.12,0,0,1-.09,0h-1.76a.12.12,0,0,1-.09,0,.22.22,0,0,1,0-.08v-.15h2Zm0-.43h-2v-.14a.11.11,0,0,1,.12-.12h1.76a.11.11,0,0,1,.12.12Z" transform="translate(-361.36 -254.21)" fill="#00205c"/>
        <path d="M422.13,317.42a.14.14,0,0,0-.11-.07,5.68,5.68,0,0,1-1.53-.59.39.39,0,0,0-.18-.05.36.36,0,0,0-.2.06,5.57,5.57,0,0,1-1.5.6.14.14,0,0,0-.11.07.12.12,0,0,0,0,.12.24.24,0,0,0,.06.11c.08.06.4,0,1-.25h0a.23.23,0,0,0,0,.13.22.22,0,0,0,.11,0h1.22a.12.12,0,0,0,.1,0,.13.13,0,0,0,0-.1.13.13,0,0,0,0-.06,3.31,3.31,0,0,0,1,.29h0a.14.14,0,0,0,.07-.11A.15.15,0,0,0,422.13,317.42Zm-2.33-.12a3.44,3.44,0,0,0,.39-.21.21.21,0,0,1,.24,0l.41.21Z" transform="translate(-361.36 -254.21)" fill="#00205c"/>
      </g>
    </g>
  </g>
</svg>
